<svg width="16" height="18" viewBox="0 0 16 18" fill="none" xmlns="http://www.w3.org/2000/svg">
<path d="M2.84709 5.79002C2.84586 5.18885 2.96495 4.59352 3.19733 4.03908C3.42971 3.48464 3.77069 2.98231 4.20018 2.56167C4.62968 2.14103 5.139 1.81058 5.69816 1.5898C6.25732 1.36902 6.855 1.26236 7.45601 1.2761C8.05703 1.28985 8.64921 1.42372 9.19769 1.66984C9.74617 1.91595 10.2399 2.26933 10.6497 2.70917C11.0595 3.149 11.3771 3.6664 11.5839 4.23088C11.7907 4.79537 11.8825 5.39552 11.8538 5.99601L13.1309 6.22001C13.1957 5.34207 13.0596 4.46089 12.7329 3.64342C12.4062 2.82594 11.8975 2.09367 11.2455 1.50223C10.5934 0.910784 9.81513 0.47572 8.96976 0.230086C8.12438 -0.0155485 7.23415 -0.0652934 6.36667 0.0846296C5.4992 0.234553 4.6773 0.580201 3.9634 1.09532C3.24951 1.61044 2.66239 2.28147 2.24666 3.05746C1.83093 3.83345 1.59751 4.69398 1.56413 5.57368C1.53076 6.45339 1.6983 7.32913 2.05404 8.13439C2.49469 8.01998 2.94799 7.96158 3.40324 7.96059C3.03726 7.29575 2.84591 6.54894 2.84709 5.79002ZM7.353 2.57151C6.84084 2.57151 6.34965 2.77497 5.9875 3.13712C5.62535 3.49927 5.42189 3.99046 5.42189 4.50262V9.97537C4.67005 9.72176 3.82165 9.56855 3.0196 9.6561C2.42997 9.72047 1.84034 9.91486 1.34468 10.3191C0.842597 10.7272 0.482124 11.3104 0.291588 12.07C0.269152 12.1591 0.266074 12.2521 0.28256 12.3425C0.299046 12.4329 0.334715 12.5188 0.387166 12.5943C0.439616 12.6698 0.507631 12.7332 0.586634 12.7802C0.665636 12.8272 0.753793 12.8568 0.845172 12.8669C4.18212 13.2377 5.88407 15.0555 6.70672 16.3789C7.32468 17.3728 8.52196 18.1903 9.84155 17.9611L11.7945 17.6213C12.3505 17.5247 12.8712 17.2837 13.3046 16.9224C13.738 16.5611 14.0688 16.0922 14.2638 15.5627L15.5293 12.1253C15.6923 11.6831 15.7562 11.2104 15.7164 10.7408C15.6767 10.2711 15.5342 9.8159 15.2992 9.40735C15.0641 8.99879 14.7422 8.64684 14.3562 8.37638C13.9702 8.10592 13.5295 7.92354 13.0652 7.84214L9.28411 7.18042V4.50262C9.28411 3.99046 9.08065 3.49927 8.7185 3.13712C8.35635 2.77497 7.86516 2.57151 7.353 2.57151ZM6.7093 4.50262C6.7093 4.3319 6.77712 4.16817 6.89783 4.04745C7.01855 3.92673 7.18228 3.85891 7.353 3.85891C7.52372 3.85891 7.68745 3.92673 7.80817 4.04745C7.92888 4.16817 7.9967 4.3319 7.9967 4.50262V7.72113C7.99687 7.87253 8.0504 8.01902 8.14787 8.13487C8.24535 8.25071 8.38054 8.32849 8.52969 8.35453L12.8425 9.11024C13.1211 9.15899 13.3856 9.26834 13.6172 9.43056C13.8489 9.59278 14.0421 9.80391 14.1832 10.049C14.3243 10.2941 14.4099 10.5672 14.4338 10.8491C14.4577 11.1309 14.4195 11.4145 14.3217 11.6799L13.0549 15.1173C12.9381 15.435 12.7398 15.7164 12.48 15.9333C12.2201 16.1502 11.9078 16.295 11.5744 16.3532L9.62141 16.693C8.97513 16.8051 8.23487 16.4008 7.79973 15.6992C6.89855 14.247 5.10391 12.3262 1.81459 11.7108C1.91758 11.546 2.03345 11.4186 2.15704 11.3181C2.41838 11.1057 2.75439 10.9795 3.15735 10.9358C3.98386 10.8457 4.98418 11.1186 5.77722 11.5151C5.87536 11.5643 5.98444 11.5875 6.0941 11.5827C6.20376 11.5778 6.31036 11.545 6.40376 11.4873C6.49716 11.4297 6.57427 11.3491 6.62774 11.2532C6.68122 11.1574 6.70929 11.0494 6.7093 10.9396V4.50262Z" fill="#B8B8B8"/>
</svg>
