<svg width="26" height="27" viewBox="0 0 26 27" fill="none" xmlns="http://www.w3.org/2000/svg">
<g clip-path="url(#clip0_1906_865)">
<path d="M20.1489 0.666626H6.1445C2.92405 0.666626 0.313354 3.27732 0.313354 6.49777V20.5021C0.313354 23.7226 2.92405 26.3333 6.1445 26.3333H20.1489C23.3693 26.3333 25.98 23.7226 25.98 20.5021V6.49777C25.98 3.27732 23.3693 0.666626 20.1489 0.666626Z" fill="url(#paint0_linear_1906_865)"/>
<path d="M13.1788 18.3445C10.8848 18.3445 9.01596 16.4757 9.01596 14.1817C9.01596 11.8878 10.8848 10.0189 13.1788 10.0189C15.4727 10.0189 17.3416 11.8878 17.3416 14.1817C17.3416 16.4757 15.4727 18.3445 13.1788 18.3445ZM13.1788 10.3638C11.0773 10.3638 9.36085 12.0723 9.36085 14.1817C9.36085 16.2912 11.0693 17.9997 13.1788 17.9997C15.2883 17.9997 16.9967 16.2912 16.9967 14.1817C16.9967 12.0723 15.2883 10.3638 13.1788 10.3638V10.3638Z" fill="white"/>
<path d="M12.6654 10.5322L13.3953 11.0536C13.3953 11.0536 12.5852 11.7594 12.1601 12.1845C11.5987 12.0482 11.2538 11.976 10.7565 11.976C10.8287 11.6231 11.0372 11.206 11.3901 10.9974C11.3901 10.9974 11.7831 10.6766 12.6654 10.5402V10.5322Z" fill="white"/>
<path d="M15.2642 11.8316C14.406 11.3022 13.2429 11.1258 13.2269 11.1258L13.251 10.9734C13.2991 10.9734 14.4541 11.1579 15.3444 11.7033L15.2642 11.8396V11.8316Z" fill="white"/>
<path d="M15.7775 11.4146L14.9835 11.6312C14.9835 11.6312 15.8096 12.4092 15.8176 13.2353C16.0903 13.2514 17.0207 13.5 17.0047 14.9357C17.1812 13.5963 17.0047 13.1792 16.74 12.5295C16.4753 11.8798 15.954 11.3986 15.954 11.3986L15.7695 11.4226L15.7775 11.4146Z" fill="white"/>
<path d="M12.89 13.9331C12.89 13.9331 14.0771 14.5828 14.8551 14.5106C14.807 15.2004 14.7348 15.8902 14.9754 16.4677C14.3258 16.5719 13.668 16.7404 12.9863 17.0371C12.7296 16.5559 12.2002 15.818 11.735 15.5693C12.128 15.1843 12.7456 14.1657 12.882 13.925L12.89 13.9331Z" fill="white"/>
<path d="M9.85013 13.4277C9.85013 13.4277 9.98648 14.5908 10.4196 15.08C10.2111 15.3848 10.0747 16.0826 10.3234 16.7002C9.89825 16.3553 9.27262 15.457 9.2245 14.695C9.17637 13.933 9.32877 13.4277 9.32877 13.4277L9.42502 13.4678C9.42502 13.4678 9.63356 13.7325 9.8421 13.4277H9.85013Z" fill="white"/>
<path d="M11.9837 15.6655C11.0452 15.441 10.2672 15.1362 10.2592 15.1281L10.3153 14.9838C10.3153 14.9838 11.0853 15.2886 12.0158 15.5131L11.9756 15.6655H11.9837Z" fill="white"/>
<path d="M12.1993 12.0362L12.051 12.0972L12.9351 14.2486L13.0835 14.1877L12.1993 12.0362Z" fill="white"/>
<path d="M15.9047 13.0736L14.4807 14.8618L14.6062 14.9617L16.0302 13.1735L15.9047 13.0736Z" fill="white"/>
<path d="M12.3446 18.0077L12.2163 17.9194C12.5932 17.358 12.9462 16.8286 12.9462 16.8286L13.0745 16.9168C13.0745 16.9168 12.7216 17.4462 12.3446 18.0077Z" fill="white"/>
<path d="M15.954 16.8848C15.5369 16.7163 14.807 16.4516 14.799 16.4516L14.8551 16.3073C14.8551 16.3073 15.6011 16.5719 16.0181 16.7404L15.962 16.8848H15.954Z" fill="white"/>
<path d="M9.86617 13.7005L9.72179 13.6443C10.1228 12.5776 10.8608 11.8557 10.8928 11.8236L11.0051 11.9359C11.0051 11.9359 10.2672 12.6658 9.87419 13.7005H9.86617Z" fill="white"/>
<path d="M12.6958 10.2729L12.5362 10.2892L12.5851 10.7679L12.7447 10.7517L12.6958 10.2729Z" fill="white"/>
<path d="M10.6828 11.139L10.6054 11.2795L11.0901 11.5466L11.1675 11.4061L10.6828 11.139Z" fill="white"/>
<path d="M15.6813 10.42C15.6813 10.42 22.7396 14.3743 23.3652 22.0582C22.7476 20.8952 21.737 18.8018 16.5395 17.3981C17.6223 17.4783 20.574 18.0959 22.5952 20.422C22.515 19.7242 21.745 17.3179 17.7827 14.6791C17.7827 14.6791 19.6436 15.5293 20.7344 16.6201C20.5018 16.0025 19.2586 14.4465 17.4779 13.2834C18.5607 13.8289 19.1864 14.1337 19.8842 14.7593C18.8736 13.3637 17.0929 11.7354 15.6973 10.412L15.6813 10.42Z" fill="white"/>
<path d="M17.6223 16.5559C17.6223 16.5559 20.2612 16.7885 21.8894 19.3472C21.4242 19.0343 20.8066 18.1039 17.6223 16.5559Z" fill="white"/>
<path d="M15.978 9.78626L12.874 3.49792L9.76992 9.78626L2.8319 10.7969L7.85294 15.6896L6.66585 22.6036L12.874 19.3391L19.0821 22.6036L18.4404 18.8498C18.2239 18.7696 17.9913 18.6894 17.7506 18.6092L18.2399 21.4405L14.0129 19.2188L12.882 18.6252L12.0318 19.0744L7.52408 21.4486L8.55075 15.4811L4.2195 11.2541L10.2111 10.3798L12.89 4.9497L15.4647 10.1552L15.577 10.3718L15.962 10.4279H15.978L16.9165 10.5643L21.5686 11.238L19.7799 12.9786C19.8441 13.0427 19.9002 13.1069 19.9644 13.1711C20.0526 13.2593 20.1328 13.3555 20.2211 13.4438L22.9401 10.7889L16.0021 9.77824L15.978 9.78626Z" fill="white"/>
</g>
<defs>
<linearGradient id="paint0_linear_1906_865" x1="26.4693" y1="26.8226" x2="4.42804" y2="4.78132" gradientUnits="userSpaceOnUse">
<stop stop-color="#ED2F2B"/>
<stop offset="1" stop-color="#FB6C3C"/>
</linearGradient>
<clipPath id="clip0_1906_865">
<rect width="25.6667" height="25.6667" fill="white" transform="translate(0.313354 0.666626)"/>
</clipPath>
</defs>
</svg>
