<svg width="104" height="44" viewBox="0 0 104 44" fill="none" xmlns="http://www.w3.org/2000/svg">
<path fill-rule="evenodd" clip-rule="evenodd" d="M53.0754 2.646C52.3717 2.45133 51.6284 2.45133 50.9247 2.646C50.4945 2.76502 50.1091 2.97446 49.692 3.2608C49.2858 3.53958 48.8163 3.9152 48.2267 4.38684L48.2267 4.38686L45.6608 6.43957L45.5845 6.50063C44.7212 7.19106 44.1899 7.61602 43.8019 8.15128C43.4586 8.6248 43.2032 9.15616 43.0479 9.72C42.8723 10.3574 42.8724 11.0377 42.8726 12.1432L42.8726 12.2409L42.8726 18.172C42.8726 18.6255 42.8726 19.0041 42.8978 19.3133C42.9242 19.6359 42.9812 19.9387 43.1271 20.2251C43.3509 20.6644 43.7081 21.0216 44.1475 21.2455C44.4338 21.3914 44.7367 21.4483 45.0592 21.4747C45.3685 21.5 45.747 21.5 46.2005 21.4999H47.2695L47.3406 21.5H47.3406C47.7218 21.5002 48.016 21.5004 48.2743 21.4414C49.1487 21.2418 49.8315 20.559 50.0311 19.6846C50.09 19.4263 50.0899 19.1321 50.0897 18.7509L50.0896 18.6798V15.7687C50.0896 14.7136 50.9449 13.8583 52 13.8583C53.0551 13.8583 53.9104 14.7136 53.9104 15.7687V18.6798L53.9104 18.7509C53.9102 19.1321 53.91 19.4263 53.969 19.6846C54.1685 20.559 54.8514 21.2418 55.7258 21.4414C55.984 21.5004 56.2783 21.5002 56.6594 21.5H56.6594L56.7305 21.4999H57.7995C58.253 21.5 58.6316 21.5 58.9408 21.4747C59.2634 21.4483 59.5662 21.3914 59.8526 21.2455C60.2919 21.0216 60.6491 20.6644 60.873 20.2251C61.0189 19.9387 61.0759 19.6359 61.1022 19.3133C61.1275 19.0041 61.1275 18.6255 61.1275 18.172V12.2409L61.1275 12.1431C61.1276 11.0377 61.1277 10.3574 60.9521 9.72C60.7968 9.15616 60.5414 8.6248 60.1982 8.15128C59.8102 7.61602 59.2788 7.19106 58.4155 6.50063L58.3392 6.43957L55.7733 4.38687L55.7733 4.38685C55.1838 3.9152 54.7142 3.53958 54.3081 3.2608C53.8909 2.97446 53.5056 2.76502 53.0754 2.646Z" fill="#D0392C"/>
<path d="M36.3283 40V31.2727H37.3851V35.1591H42.0385V31.2727H43.0953V40H42.0385V36.0966H37.3851V40H36.3283ZM47.7338 40.1364C47.1429 40.1364 46.6245 39.9957 46.1784 39.7145C45.7353 39.4332 45.3887 39.0398 45.1387 38.5341C44.8915 38.0284 44.7679 37.4375 44.7679 36.7614C44.7679 36.0795 44.8915 35.4844 45.1387 34.9759C45.3887 34.4673 45.7353 34.0724 46.1784 33.7912C46.6245 33.5099 47.1429 33.3693 47.7338 33.3693C48.3248 33.3693 48.8418 33.5099 49.285 33.7912C49.731 34.0724 50.0776 34.4673 50.3248 34.9759C50.5748 35.4844 50.6998 36.0795 50.6998 36.7614C50.6998 37.4375 50.5748 38.0284 50.3248 38.5341C50.0776 39.0398 49.731 39.4332 49.285 39.7145C48.8418 39.9957 48.3248 40.1364 47.7338 40.1364ZM47.7338 39.233C48.1827 39.233 48.552 39.1179 48.8418 38.8878C49.1316 38.6577 49.3461 38.3551 49.4853 37.9801C49.6245 37.6051 49.6941 37.1989 49.6941 36.7614C49.6941 36.3239 49.6245 35.9162 49.4853 35.5384C49.3461 35.1605 49.1316 34.8551 48.8418 34.6222C48.552 34.3892 48.1827 34.2727 47.7338 34.2727C47.285 34.2727 46.9157 34.3892 46.6259 34.6222C46.3361 34.8551 46.1216 35.1605 45.9824 35.5384C45.8432 35.9162 45.7736 36.3239 45.7736 36.7614C45.7736 37.1989 45.8432 37.6051 45.9824 37.9801C46.1216 38.3551 46.3361 38.6577 46.6259 38.8878C46.9157 39.1179 47.285 39.233 47.7338 39.233ZM52.2349 40V33.4545H53.2065V34.4773H53.2917C53.4281 34.1278 53.6483 33.8565 53.9522 33.6634C54.2562 33.4673 54.6213 33.3693 55.0474 33.3693C55.4792 33.3693 55.8386 33.4673 56.1255 33.6634C56.4153 33.8565 56.6412 34.1278 56.8031 34.4773H56.8713C57.0389 34.1392 57.2903 33.8707 57.6255 33.6719C57.9608 33.4702 58.3627 33.3693 58.8315 33.3693C59.4167 33.3693 59.8954 33.5526 60.2676 33.919C60.6397 34.2827 60.8258 34.8494 60.8258 35.6193V40H59.8201V35.6193C59.8201 35.1364 59.688 34.7912 59.4238 34.5838C59.1596 34.3764 58.8485 34.2727 58.4906 34.2727C58.0304 34.2727 57.6738 34.4119 57.421 34.6903C57.1681 34.9659 57.0417 35.3153 57.0417 35.7386V40H56.019V35.517C56.019 35.1449 55.8983 34.8452 55.6568 34.6179C55.4153 34.3878 55.1042 34.2727 54.7235 34.2727C54.4622 34.2727 54.2179 34.3423 53.9906 34.4815C53.7662 34.6207 53.5843 34.8139 53.4451 35.0611C53.3088 35.3054 53.2406 35.5881 53.2406 35.9091V40H52.2349ZM65.4089 40.1364C64.7782 40.1364 64.2342 39.9972 63.7768 39.7188C63.3223 39.4375 62.9714 39.0455 62.7243 38.5426C62.4799 38.0369 62.3578 37.4489 62.3578 36.7784C62.3578 36.108 62.4799 35.517 62.7243 35.0057C62.9714 34.4915 63.3152 34.0909 63.7555 33.804C64.1987 33.5142 64.7157 33.3693 65.3066 33.3693C65.6475 33.3693 65.9842 33.4261 66.3166 33.5398C66.649 33.6534 66.9515 33.8381 67.2243 34.0938C67.497 34.3466 67.7143 34.6818 67.8762 35.0994C68.0382 35.517 68.1191 36.0312 68.1191 36.642V37.0682H63.0737V36.1989H67.0964C67.0964 35.8295 67.0225 35.5 66.8748 35.2102C66.7299 34.9205 66.5225 34.6918 66.2527 34.5241C65.9856 34.3565 65.6703 34.2727 65.3066 34.2727C64.9061 34.2727 64.5595 34.3722 64.2669 34.571C63.9771 34.767 63.7541 35.0227 63.5978 35.3381C63.4416 35.6534 63.3635 35.9915 63.3635 36.3523V36.9318C63.3635 37.4261 63.4487 37.8452 63.6191 38.1889C63.7924 38.5298 64.0325 38.7898 64.3393 38.9688C64.6461 39.1449 65.0027 39.233 65.4089 39.233C65.6731 39.233 65.9118 39.196 66.1248 39.1222C66.3407 39.0455 66.5268 38.9318 66.6831 38.7812C66.8393 38.6278 66.96 38.4375 67.0453 38.2102L68.0169 38.483C67.9146 38.8125 67.7427 39.1023 67.5012 39.3523C67.2598 39.5994 66.9615 39.7926 66.6064 39.9318C66.2512 40.0682 65.8521 40.1364 65.4089 40.1364Z" fill="#D0392C"/>
</svg>
