<svg width="104" height="44" viewBox="0 0 104 44" fill="none" xmlns="http://www.w3.org/2000/svg">
<path d="M47.859 10.8203C47.859 9.99188 47.1874 9.32031 46.359 9.32031H44C43.1716 9.32031 42.5 9.99189 42.5 10.8203V20.0383H47.859V10.8203Z" fill="#525157"/>
<path d="M54.6795 5.46142C54.6795 4.633 54.0079 3.96143 53.1795 3.96143H50.8205C49.9921 3.96143 49.3205 4.633 49.3205 5.46143V20.0383H54.6795V5.46142Z" fill="#525157"/>
<path d="M61.5 14.3931C61.5 13.5646 60.8284 12.8931 60 12.8931H57.6411C56.8126 12.8931 56.1411 13.5646 56.1411 14.3931V20.0384H61.5V14.3931Z" fill="#525157"/>
<path d="M16.8107 40V31.2727H17.8675V39.0625H21.9244V40H16.8107ZM26.1687 40.1364C25.538 40.1364 24.994 39.9972 24.5366 39.7188C24.082 39.4375 23.7312 39.0455 23.484 38.5426C23.2397 38.0369 23.1175 37.4489 23.1175 36.7784C23.1175 36.108 23.2397 35.517 23.484 35.0057C23.7312 34.4915 24.0749 34.0909 24.5153 33.804C24.9585 33.5142 25.4755 33.3693 26.0664 33.3693C26.4073 33.3693 26.744 33.4261 27.0763 33.5398C27.4087 33.6534 27.7113 33.8381 27.984 34.0938C28.2567 34.3466 28.4741 34.6818 28.636 35.0994C28.7979 35.517 28.8789 36.0312 28.8789 36.642V37.0682H23.8335V36.1989H27.8562C27.8562 35.8295 27.7823 35.5 27.6346 35.2102C27.4897 34.9205 27.2823 34.6918 27.0124 34.5241C26.7454 34.3565 26.43 34.2727 26.0664 34.2727C25.6658 34.2727 25.3192 34.3722 25.0266 34.571C24.7369 34.767 24.5138 35.0227 24.3576 35.3381C24.2013 35.6534 24.1232 35.9915 24.1232 36.3523V36.9318C24.1232 37.4261 24.2085 37.8452 24.3789 38.1889C24.5522 38.5298 24.7923 38.7898 25.0991 38.9688C25.4059 39.1449 25.7624 39.233 26.1687 39.233C26.4329 39.233 26.6715 39.196 26.8846 39.1222C27.1005 39.0455 27.2866 38.9318 27.4428 38.7812C27.5991 38.6278 27.7198 38.4375 27.805 38.2102L28.7766 38.483C28.6744 38.8125 28.5025 39.1023 28.261 39.3523C28.0195 39.5994 27.7212 39.7926 27.3661 39.9318C27.011 40.0682 26.6119 40.1364 26.1687 40.1364ZM32.3349 40.1534C31.9201 40.1534 31.5437 40.0753 31.2056 39.919C30.8675 39.7599 30.5991 39.5312 30.4002 39.233C30.2013 38.9318 30.1019 38.5682 30.1019 38.142C30.1019 37.767 30.1758 37.4631 30.3235 37.2301C30.4712 36.9943 30.6687 36.8097 30.9158 36.6761C31.163 36.5426 31.4357 36.4432 31.734 36.3778C32.0352 36.3097 32.3377 36.2557 32.6417 36.2159C33.0394 36.1648 33.3619 36.1264 33.609 36.1009C33.859 36.0724 34.0408 36.0256 34.1545 35.9602C34.271 35.8949 34.3292 35.7812 34.3292 35.6193V35.5852C34.3292 35.1648 34.2141 34.8381 33.984 34.6051C33.7567 34.3722 33.4116 34.2557 32.9485 34.2557C32.4684 34.2557 32.092 34.3608 31.8192 34.571C31.5465 34.7812 31.3548 35.0057 31.244 35.2443L30.2894 34.9034C30.4599 34.5057 30.6871 34.196 30.9712 33.9744C31.2582 33.75 31.5707 33.5937 31.9087 33.5057C32.2496 33.4148 32.5849 33.3693 32.9144 33.3693C33.1246 33.3693 33.3661 33.3949 33.6388 33.446C33.9144 33.4943 34.18 33.5952 34.4357 33.7486C34.6942 33.902 34.9087 34.1335 35.0792 34.4432C35.2496 34.7528 35.3349 35.1676 35.3349 35.6875V40H34.3292V39.1136H34.2781C34.2099 39.2557 34.0962 39.4077 33.9371 39.5696C33.7781 39.7315 33.5664 39.8693 33.3022 39.983C33.038 40.0966 32.7156 40.1534 32.3349 40.1534ZM32.4883 39.25C32.886 39.25 33.2212 39.1719 33.494 39.0156C33.7695 38.8594 33.9769 38.6577 34.1161 38.4105C34.2582 38.1634 34.3292 37.9034 34.3292 37.6307V36.7102C34.2866 36.7614 34.1928 36.8082 34.0479 36.8509C33.9059 36.8906 33.7411 36.9261 33.5536 36.9574C33.369 36.9858 33.1886 37.0114 33.0124 37.0341C32.8391 37.054 32.6985 37.071 32.5906 37.0852C32.3292 37.1193 32.0849 37.1747 31.8576 37.2514C31.6332 37.3253 31.4513 37.4375 31.3121 37.5881C31.1758 37.7358 31.1076 37.9375 31.1076 38.1932C31.1076 38.5426 31.2369 38.8068 31.4954 38.9858C31.7567 39.1619 32.0877 39.25 32.4883 39.25ZM39.642 40.1364C39.0966 40.1364 38.6151 39.9986 38.1974 39.723C37.7798 39.4446 37.4531 39.0526 37.2173 38.5469C36.9815 38.0384 36.8636 37.4375 36.8636 36.7443C36.8636 36.0568 36.9815 35.4602 37.2173 34.9545C37.4531 34.4489 37.7813 34.0582 38.2017 33.7827C38.6222 33.5071 39.108 33.3693 39.6591 33.3693C40.0852 33.3693 40.4219 33.4403 40.669 33.5824C40.919 33.7216 41.1094 33.8807 41.2401 34.0597C41.3736 34.2358 41.4773 34.3807 41.5511 34.4943H41.6364V31.2727H42.642V40H41.6705V38.9943H41.5511C41.4773 39.1136 41.3722 39.2642 41.2358 39.446C41.0994 39.625 40.9048 39.7855 40.652 39.9276C40.3991 40.0668 40.0625 40.1364 39.642 40.1364ZM39.7784 39.233C40.1818 39.233 40.5227 39.1278 40.8011 38.9176C41.0795 38.7045 41.2912 38.4105 41.4361 38.0355C41.581 37.6577 41.6534 37.2216 41.6534 36.7273C41.6534 36.2386 41.5824 35.8111 41.4403 35.4446C41.2983 35.0753 41.0881 34.7884 40.8097 34.5838C40.5313 34.3764 40.1875 34.2727 39.7784 34.2727C39.3523 34.2727 38.9972 34.3821 38.7131 34.6009C38.4318 34.8168 38.2202 35.1108 38.0781 35.483C37.9389 35.8523 37.8693 36.267 37.8693 36.7273C37.8693 37.1932 37.9403 37.6165 38.0824 37.9972C38.2273 38.375 38.4403 38.6761 38.7216 38.9006C39.0057 39.1222 39.358 39.233 39.7784 39.233ZM47.3679 40.1364C46.7372 40.1364 46.1932 39.9972 45.7358 39.7188C45.2812 39.4375 44.9304 39.0455 44.6832 38.5426C44.4389 38.0369 44.3168 37.4489 44.3168 36.7784C44.3168 36.108 44.4389 35.517 44.6832 35.0057C44.9304 34.4915 45.2741 34.0909 45.7145 33.804C46.1577 33.5142 46.6747 33.3693 47.2656 33.3693C47.6065 33.3693 47.9432 33.4261 48.2756 33.5398C48.608 33.6534 48.9105 33.8381 49.1832 34.0938C49.456 34.3466 49.6733 34.6818 49.8352 35.0994C49.9972 35.517 50.0781 36.0312 50.0781 36.642V37.0682H45.0327V36.1989H49.0554C49.0554 35.8295 48.9815 35.5 48.8338 35.2102C48.6889 34.9205 48.4815 34.6918 48.2116 34.5241C47.9446 34.3565 47.6293 34.2727 47.2656 34.2727C46.8651 34.2727 46.5185 34.3722 46.2259 34.571C45.9361 34.767 45.7131 35.0227 45.5568 35.3381C45.4006 35.6534 45.3224 35.9915 45.3224 36.3523V36.9318C45.3224 37.4261 45.4077 37.8452 45.5781 38.1889C45.7514 38.5298 45.9915 38.7898 46.2983 38.9688C46.6051 39.1449 46.9616 39.233 47.3679 39.233C47.6321 39.233 47.8707 39.196 48.0838 39.1222C48.2997 39.0455 48.4858 38.9318 48.642 38.7812C48.7983 38.6278 48.919 38.4375 49.0043 38.2102L49.9759 38.483C49.8736 38.8125 49.7017 39.1023 49.4602 39.3523C49.2188 39.5994 48.9205 39.7926 48.5653 39.9318C48.2102 40.0682 47.8111 40.1364 47.3679 40.1364ZM51.608 40V33.4545H52.5795V34.4432H52.6477C52.767 34.1193 52.983 33.8565 53.2955 33.6548C53.608 33.4531 53.9602 33.3523 54.3523 33.3523C54.4261 33.3523 54.5185 33.3537 54.6293 33.3565C54.7401 33.3594 54.8239 33.3636 54.8807 33.3693V34.392C54.8466 34.3835 54.7685 34.3707 54.6463 34.3537C54.527 34.3338 54.4006 34.3239 54.267 34.3239C53.9489 34.3239 53.6648 34.3906 53.4148 34.5241C53.1676 34.6548 52.9716 34.8366 52.8267 35.0696C52.6847 35.2997 52.6136 35.5625 52.6136 35.858V40H51.608ZM56.2092 40V31.2727H57.2148V34.4943H57.3001C57.3739 34.3807 57.4762 34.2358 57.6069 34.0597C57.7404 33.8807 57.9308 33.7216 58.1779 33.5824C58.4279 33.4403 58.766 33.3693 59.1921 33.3693C59.7433 33.3693 60.229 33.5071 60.6495 33.7827C61.07 34.0582 61.3981 34.4489 61.6339 34.9545C61.8697 35.4602 61.9876 36.0568 61.9876 36.7443C61.9876 37.4375 61.8697 38.0384 61.6339 38.5469C61.3981 39.0526 61.0714 39.4446 60.6538 39.723C60.2362 39.9986 59.7546 40.1364 59.2092 40.1364C58.7887 40.1364 58.4521 40.0668 58.1992 39.9276C57.9464 39.7855 57.7518 39.625 57.6154 39.446C57.479 39.2642 57.3739 39.1136 57.3001 38.9943H57.1808V40H56.2092ZM57.1978 36.7273C57.1978 37.2216 57.2702 37.6577 57.4151 38.0355C57.56 38.4105 57.7717 38.7045 58.0501 38.9176C58.3285 39.1278 58.6694 39.233 59.0728 39.233C59.4933 39.233 59.8441 39.1222 60.1254 38.9006C60.4094 38.6761 60.6225 38.375 60.7646 37.9972C60.9094 37.6165 60.9819 37.1932 60.9819 36.7273C60.9819 36.267 60.9109 35.8523 60.7688 35.483C60.6296 35.1108 60.418 34.8168 60.1339 34.6009C59.8526 34.3821 59.4989 34.2727 59.0728 34.2727C58.6637 34.2727 58.32 34.3764 58.0415 34.5838C57.7631 34.7884 57.5529 35.0753 57.4109 35.4446C57.2688 35.8111 57.1978 36.2386 57.1978 36.7273ZM66.185 40.1364C65.5941 40.1364 65.0756 39.9957 64.6296 39.7145C64.1864 39.4332 63.8398 39.0398 63.5898 38.5341C63.3427 38.0284 63.2191 37.4375 63.2191 36.7614C63.2191 36.0795 63.3427 35.4844 63.5898 34.9759C63.8398 34.4673 64.1864 34.0724 64.6296 33.7912C65.0756 33.5099 65.5941 33.3693 66.185 33.3693C66.7759 33.3693 67.293 33.5099 67.7362 33.7912C68.1822 34.0724 68.5288 34.4673 68.7759 34.9759C69.0259 35.4844 69.1509 36.0795 69.1509 36.7614C69.1509 37.4375 69.0259 38.0284 68.7759 38.5341C68.5288 39.0398 68.1822 39.4332 67.7362 39.7145C67.293 39.9957 66.7759 40.1364 66.185 40.1364ZM66.185 39.233C66.6339 39.233 67.0032 39.1179 67.293 38.8878C67.5827 38.6577 67.7972 38.3551 67.9364 37.9801C68.0756 37.6051 68.1452 37.1989 68.1452 36.7614C68.1452 36.3239 68.0756 35.9162 67.9364 35.5384C67.7972 35.1605 67.5827 34.8551 67.293 34.6222C67.0032 34.3892 66.6339 34.2727 66.185 34.2727C65.7362 34.2727 65.3668 34.3892 65.0771 34.6222C64.7873 34.8551 64.5728 35.1605 64.4336 35.5384C64.2944 35.9162 64.2248 36.3239 64.2248 36.7614C64.2248 37.1989 64.2944 37.6051 64.4336 37.9801C64.5728 38.3551 64.7873 38.6577 65.0771 38.8878C65.3668 39.1179 65.7362 39.233 66.185 39.233ZM72.6122 40.1534C72.1974 40.1534 71.821 40.0753 71.483 39.919C71.1449 39.7599 70.8764 39.5312 70.6776 39.233C70.4787 38.9318 70.3793 38.5682 70.3793 38.142C70.3793 37.767 70.4531 37.4631 70.6009 37.2301C70.7486 36.9943 70.946 36.8097 71.1932 36.6761C71.4403 36.5426 71.7131 36.4432 72.0114 36.3778C72.3125 36.3097 72.6151 36.2557 72.919 36.2159C73.3168 36.1648 73.6392 36.1264 73.8864 36.1009C74.1364 36.0724 74.3182 36.0256 74.4318 35.9602C74.5483 35.8949 74.6065 35.7812 74.6065 35.6193V35.5852C74.6065 35.1648 74.4915 34.8381 74.2614 34.6051C74.0341 34.3722 73.6889 34.2557 73.2259 34.2557C72.7457 34.2557 72.3693 34.3608 72.0966 34.571C71.8239 34.7812 71.6321 35.0057 71.5213 35.2443L70.5668 34.9034C70.7372 34.5057 70.9645 34.196 71.2486 33.9744C71.5355 33.75 71.848 33.5937 72.1861 33.5057C72.527 33.4148 72.8622 33.3693 73.1918 33.3693C73.402 33.3693 73.6435 33.3949 73.9162 33.446C74.1918 33.4943 74.4574 33.5952 74.7131 33.7486C74.9716 33.902 75.1861 34.1335 75.3565 34.4432C75.527 34.7528 75.6122 35.1676 75.6122 35.6875V40H74.6065V39.1136H74.5554C74.4872 39.2557 74.3736 39.4077 74.2145 39.5696C74.0554 39.7315 73.8438 39.8693 73.5795 39.983C73.3153 40.0966 72.9929 40.1534 72.6122 40.1534ZM72.7656 39.25C73.1634 39.25 73.4986 39.1719 73.7713 39.0156C74.0469 38.8594 74.2543 38.6577 74.3935 38.4105C74.5355 38.1634 74.6065 37.9034 74.6065 37.6307V36.7102C74.5639 36.7614 74.4702 36.8082 74.3253 36.8509C74.1832 36.8906 74.0185 36.9261 73.831 36.9574C73.6463 36.9858 73.4659 37.0114 73.2898 37.0341C73.1165 37.054 72.9759 37.071 72.8679 37.0852C72.6065 37.1193 72.3622 37.1747 72.1349 37.2514C71.9105 37.3253 71.7287 37.4375 71.5895 37.5881C71.4531 37.7358 71.3849 37.9375 71.3849 38.1932C71.3849 38.5426 71.5142 38.8068 71.7727 38.9858C72.0341 39.1619 72.3651 39.25 72.7656 39.25ZM77.4478 40V33.4545H78.4194V34.4432H78.4876C78.6069 34.1193 78.8228 33.8565 79.1353 33.6548C79.4478 33.4531 79.8001 33.3523 80.1921 33.3523C80.266 33.3523 80.3583 33.3537 80.4691 33.3565C80.5799 33.3594 80.6637 33.3636 80.7205 33.3693V34.392C80.6864 34.3835 80.6083 34.3707 80.4862 34.3537C80.3668 34.3338 80.2404 34.3239 80.1069 34.3239C79.7887 34.3239 79.5046 34.3906 79.2546 34.5241C79.0075 34.6548 78.8114 34.8366 78.6665 35.0696C78.5245 35.2997 78.4535 35.5625 78.4535 35.858V40H77.4478ZM84.185 40.1364C83.6396 40.1364 83.158 39.9986 82.7404 39.723C82.3228 39.4446 81.9961 39.0526 81.7603 38.5469C81.5245 38.0384 81.4066 37.4375 81.4066 36.7443C81.4066 36.0568 81.5245 35.4602 81.7603 34.9545C81.9961 34.4489 82.3242 34.0582 82.7447 33.7827C83.1651 33.5071 83.6509 33.3693 84.2021 33.3693C84.6282 33.3693 84.9648 33.4403 85.212 33.5824C85.462 33.7216 85.6523 33.8807 85.783 34.0597C85.9165 34.2358 86.0202 34.3807 86.0941 34.4943H86.1793V31.2727H87.185V40H86.2134V38.9943H86.0941C86.0202 39.1136 85.9151 39.2642 85.7788 39.446C85.6424 39.625 85.4478 39.7855 85.195 39.9276C84.9421 40.0668 84.6055 40.1364 84.185 40.1364ZM84.3214 39.233C84.7248 39.233 85.0657 39.1278 85.3441 38.9176C85.6225 38.7045 85.8342 38.4105 85.979 38.0355C86.1239 37.6577 86.1964 37.2216 86.1964 36.7273C86.1964 36.2386 86.1254 35.8111 85.9833 35.4446C85.8413 35.0753 85.631 34.7884 85.3526 34.5838C85.0742 34.3764 84.7305 34.2727 84.3214 34.2727C83.8952 34.2727 83.5401 34.3821 83.256 34.6009C82.9748 34.8168 82.7631 35.1108 82.6211 35.483C82.4819 35.8523 82.4123 36.267 82.4123 36.7273C82.4123 37.1932 82.4833 37.6165 82.6254 37.9972C82.7702 38.375 82.9833 38.6761 83.2646 38.9006C83.5487 39.1222 83.9009 39.233 84.3214 39.233Z" fill="#525157"/>
</svg>
