<svg width="48" height="48" viewBox="0 0 48 48" fill="none" xmlns="http://www.w3.org/2000/svg">
<path d="M24 10C23.0718 10 22.1816 10.3687 21.5252 11.0251C20.8688 11.6815 20.5 12.5717 20.5 13.5V34.5C20.5 35.4283 20.8688 36.3185 21.5252 36.9749C22.1816 37.6313 23.0718 38 24 38C24.9283 38 25.8185 37.6313 26.4749 36.9749C27.1313 36.3185 27.5 35.4283 27.5 34.5V13.5C27.5 12.5717 27.1313 11.6815 26.4749 11.0251C25.8185 10.3687 24.9283 10 24 10ZM13.5 24C12.5718 24 11.6816 24.3687 11.0252 25.0251C10.3688 25.6815 10 26.5717 10 27.5V34.5C10 35.4283 10.3688 36.3185 11.0252 36.9749C11.6816 37.6313 12.5718 38 13.5 38C14.4283 38 15.3185 37.6313 15.9749 36.9749C16.6313 36.3185 17 35.4283 17 34.5V27.5C17 26.5717 16.6313 25.6815 15.9749 25.0251C15.3185 24.3687 14.4283 24 13.5 24ZM34.5 17C33.5718 17 32.6816 17.3687 32.0252 18.0251C31.3688 18.6815 31 19.5717 31 20.5V34.5C31 35.4283 31.3688 36.3185 32.0252 36.9749C32.6816 37.6313 33.5718 38 34.5 38C35.4283 38 36.3185 37.6313 36.9749 36.9749C37.6313 36.3185 38 35.4283 38 34.5V20.5C38 19.5717 37.6313 18.6815 36.9749 18.0251C36.3185 17.3687 35.4283 17 34.5 17Z" fill="black"/>
</svg>
