<svg width="28" height="28" viewBox="0 0 28 28" fill="none" xmlns="http://www.w3.org/2000/svg">
<path d="M14 0C13.0718 0 12.1816 0.368749 11.5252 1.02513C10.8688 1.6815 10.5 2.57174 10.5 3.5V24.5C10.5 25.4283 10.8688 26.3185 11.5252 26.9749C12.1816 27.6313 13.0718 28 14 28C14.9283 28 15.8185 27.6313 16.4749 26.9749C17.1313 26.3185 17.5 25.4283 17.5 24.5V3.5C17.5 2.57174 17.1313 1.6815 16.4749 1.02513C15.8185 0.368749 14.9283 0 14 0ZM3.50005 14C2.57179 14 1.68155 14.3687 1.02518 15.0251C0.368798 15.6815 4.95911e-05 16.5717 4.95911e-05 17.5V24.5C4.95911e-05 25.4283 0.368798 26.3185 1.02518 26.9749C1.68155 27.6313 2.57179 28 3.50005 28C4.42831 28 5.31855 27.6313 5.97492 26.9749C6.6313 26.3185 7.00005 25.4283 7.00005 24.5V17.5C7.00005 16.5717 6.6313 15.6815 5.97492 15.0251C5.31855 14.3687 4.42831 14 3.50005 14ZM24.5 7C23.5718 7 22.6816 7.36875 22.0252 8.02513C21.3688 8.6815 21 9.57174 21 10.5V24.5C21 25.4283 21.3688 26.3185 22.0252 26.9749C22.6816 27.6313 23.5718 28 24.5 28C25.4283 28 26.3185 27.6313 26.9749 26.9749C27.6313 26.3185 28 25.4283 28 24.5V10.5C28 9.57174 27.6313 8.6815 26.9749 8.02513C26.3185 7.36875 25.4283 7 24.5 7V7Z" fill="black"/>
</svg>
