<svg width="104" height="44" viewBox="0 0 104 44" fill="none" xmlns="http://www.w3.org/2000/svg">
<g opacity="0.9">
<circle cx="52" cy="12" r="9.25" stroke="#525157" stroke-width="1.5"/>
<mask id="mask0_1740_4806" style="mask-type:alpha" maskUnits="userSpaceOnUse" x="43" y="3" width="18" height="18">
<circle cx="52" cy="12" r="9" fill="#D9D9D9"/>
</mask>
<g mask="url(#mask0_1740_4806)">
<path d="M47.995 10.3834C47.995 8.17153 49.7882 6.37842 52.0001 6.37842C54.212 6.37842 56.0051 8.17153 56.0051 10.3834C56.0051 12.5954 54.212 14.3885 52.0001 14.3885C49.7882 14.3885 47.995 12.5954 47.995 10.3834Z" fill="#525157"/>
<path d="M49.3359 15.9901C46.7562 15.9901 44.6649 18.0814 44.6649 20.6611C44.6649 22.5052 46.1598 24.0002 48.0039 24.0002H55.996C57.8401 24.0002 59.335 22.5052 59.335 20.6611C59.335 18.0814 57.2438 15.9901 54.664 15.9901H49.3359Z" fill="#525157"/>
</g>
</g>
<path d="M35.0334 40V31.2727H37.9822C38.6669 31.2727 39.2266 31.3963 39.6612 31.6435C40.0987 31.8878 40.4226 32.2188 40.6328 32.6364C40.843 33.054 40.9482 33.5199 40.9482 34.0341C40.9482 34.5483 40.843 35.0156 40.6328 35.4361C40.4254 35.8565 40.1044 36.1918 39.6697 36.4418C39.2351 36.6889 38.6783 36.8125 37.9993 36.8125H35.8857V35.875H37.9652C38.4339 35.875 38.8104 35.794 39.0945 35.6321C39.3786 35.4702 39.5845 35.2514 39.7124 34.9759C39.843 34.6974 39.9084 34.3835 39.9084 34.0341C39.9084 33.6847 39.843 33.3722 39.7124 33.0966C39.5845 32.821 39.3771 32.6051 39.0902 32.4489C38.8033 32.2898 38.4226 32.2102 37.9482 32.2102H36.0902V40H35.0334ZM42.5142 40V33.4545H43.4858V34.4432H43.554C43.6733 34.1193 43.8892 33.8565 44.2017 33.6548C44.5142 33.4531 44.8665 33.3523 45.2585 33.3523C45.3324 33.3523 45.4247 33.3537 45.5355 33.3565C45.6463 33.3594 45.7301 33.3636 45.7869 33.3693V34.392C45.7528 34.3835 45.6747 34.3707 45.5526 34.3537C45.4332 34.3338 45.3068 34.3239 45.1733 34.3239C44.8551 34.3239 44.571 34.3906 44.321 34.5241C44.0739 34.6548 43.8778 34.8366 43.733 35.0696C43.5909 35.2997 43.5199 35.5625 43.5199 35.858V40H42.5142ZM49.4389 40.1364C48.848 40.1364 48.3295 39.9957 47.8835 39.7145C47.4403 39.4332 47.0938 39.0398 46.8438 38.5341C46.5966 38.0284 46.473 37.4375 46.473 36.7614C46.473 36.0795 46.5966 35.4844 46.8438 34.9759C47.0938 34.4673 47.4403 34.0724 47.8835 33.7912C48.3295 33.5099 48.848 33.3693 49.4389 33.3693C50.0298 33.3693 50.5469 33.5099 50.9901 33.7912C51.4361 34.0724 51.7827 34.4673 52.0298 34.9759C52.2798 35.4844 52.4048 36.0795 52.4048 36.7614C52.4048 37.4375 52.2798 38.0284 52.0298 38.5341C51.7827 39.0398 51.4361 39.4332 50.9901 39.7145C50.5469 39.9957 50.0298 40.1364 49.4389 40.1364ZM49.4389 39.233C49.8878 39.233 50.2571 39.1179 50.5469 38.8878C50.8366 38.6577 51.0511 38.3551 51.1903 37.9801C51.3295 37.6051 51.3991 37.1989 51.3991 36.7614C51.3991 36.3239 51.3295 35.9162 51.1903 35.5384C51.0511 35.1605 50.8366 34.8551 50.5469 34.6222C50.2571 34.3892 49.8878 34.2727 49.4389 34.2727C48.9901 34.2727 48.6207 34.3892 48.331 34.6222C48.0412 34.8551 47.8267 35.1605 47.6875 35.5384C47.5483 35.9162 47.4787 36.3239 47.4787 36.7614C47.4787 37.1989 47.5483 37.6051 47.6875 37.9801C47.8267 38.3551 48.0412 38.6577 48.331 38.8878C48.6207 39.1179 48.9901 39.233 49.4389 39.233ZM56.8548 33.4545V34.3068H53.3263V33.4545H56.8548ZM54.3832 40V32.5511C54.3832 32.1761 54.4712 31.8636 54.6474 31.6136C54.8235 31.3636 55.0522 31.1761 55.3335 31.0511C55.6147 30.9261 55.9116 30.8636 56.2241 30.8636C56.4712 30.8636 56.6729 30.8835 56.8292 30.9233C56.9854 30.9631 57.1019 31 57.1786 31.0341L56.8888 31.9034C56.8377 31.8864 56.7667 31.8651 56.6758 31.8395C56.5877 31.8139 56.4712 31.8011 56.3263 31.8011C55.994 31.8011 55.7539 31.8849 55.6062 32.0526C55.4613 32.2202 55.3888 32.4659 55.3888 32.7898V40H54.3832ZM58.2642 40V33.4545H59.2699V40H58.2642ZM58.7756 32.3636C58.5795 32.3636 58.4105 32.2969 58.2685 32.1634C58.1293 32.0298 58.0597 31.8693 58.0597 31.6818C58.0597 31.4943 58.1293 31.3338 58.2685 31.2003C58.4105 31.0668 58.5795 31 58.7756 31C58.9716 31 59.1392 31.0668 59.2784 31.2003C59.4205 31.3338 59.4915 31.4943 59.4915 31.6818C59.4915 31.8693 59.4205 32.0298 59.2784 32.1634C59.1392 32.2969 58.9716 32.3636 58.7756 32.3636ZM62.1175 31.2727V40H61.1119V31.2727H62.1175ZM66.7038 40.1364C66.0732 40.1364 65.5291 39.9972 65.0717 39.7188C64.6172 39.4375 64.2663 39.0455 64.0192 38.5426C63.7749 38.0369 63.6527 37.4489 63.6527 36.7784C63.6527 36.108 63.7749 35.517 64.0192 35.0057C64.2663 34.4915 64.6101 34.0909 65.0504 33.804C65.4936 33.5142 66.0107 33.3693 66.6016 33.3693C66.9425 33.3693 67.2791 33.4261 67.6115 33.5398C67.9439 33.6534 68.2464 33.8381 68.5192 34.0938C68.7919 34.3466 69.0092 34.6818 69.1712 35.0994C69.3331 35.517 69.4141 36.0312 69.4141 36.642V37.0682H64.3686V36.1989H68.3913C68.3913 35.8295 68.3175 35.5 68.1697 35.2102C68.0249 34.9205 67.8175 34.6918 67.5476 34.5241C67.2805 34.3565 66.9652 34.2727 66.6016 34.2727C66.201 34.2727 65.8544 34.3722 65.5618 34.571C65.272 34.767 65.049 35.0227 64.8928 35.3381C64.7365 35.6534 64.6584 35.9915 64.6584 36.3523V36.9318C64.6584 37.4261 64.7436 37.8452 64.9141 38.1889C65.0874 38.5298 65.3274 38.7898 65.6342 38.9688C65.9411 39.1449 66.2976 39.233 66.7038 39.233C66.968 39.233 67.2067 39.196 67.4197 39.1222C67.6357 39.0455 67.8217 38.9318 67.978 38.7812C68.1342 38.6278 68.255 38.4375 68.3402 38.2102L69.3118 38.483C69.2095 38.8125 69.0376 39.1023 68.7962 39.3523C68.5547 39.5994 68.2564 39.7926 67.9013 39.9318C67.5462 40.0682 67.147 40.1364 66.7038 40.1364Z" fill="#525157"/>
</svg>
