<svg width="328" height="48" viewBox="0 0 328 48" fill="none" xmlns="http://www.w3.org/2000/svg">
<path d="M78.3471 20.79C78.3459 20.1889 78.4649 19.5935 78.6973 19.0391C78.9297 18.4846 79.2707 17.9823 79.7002 17.5617C80.1297 17.141 80.639 16.8106 81.1982 16.5898C81.7573 16.369 82.355 16.2624 82.956 16.2761C83.557 16.2898 84.1492 16.4237 84.6977 16.6698C85.2462 16.916 85.7399 17.2693 86.1497 17.7092C86.5595 18.149 86.8771 18.6664 87.0839 19.2309C87.2907 19.7954 87.3825 20.3955 87.3538 20.996L88.6309 21.22C88.6957 20.3421 88.5596 19.4609 88.2329 18.6434C87.9062 17.8259 87.3975 17.0937 86.7455 16.5022C86.0934 15.9108 85.3151 15.4757 84.4698 15.2301C83.6244 14.9845 82.7341 14.9347 81.8667 15.0846C80.9992 15.2346 80.1773 15.5802 79.4634 16.0953C78.7495 16.6104 78.1624 17.2815 77.7467 18.0575C77.3309 18.8335 77.0975 19.694 77.0641 20.5737C77.0308 21.4534 77.1983 22.3291 77.554 23.1344C77.9947 23.02 78.448 22.9616 78.9032 22.9606C78.5373 22.2957 78.3459 21.5489 78.3471 20.79V20.79ZM82.853 17.5715C82.3408 17.5715 81.8497 17.775 81.4875 18.1371C81.1253 18.4993 80.9219 18.9905 80.9219 19.5026V24.9754C80.17 24.7218 79.3217 24.5686 78.5196 24.6561C77.93 24.7205 77.3403 24.9149 76.8447 25.3191C76.3426 25.7272 75.9821 26.3104 75.7916 27.07C75.7692 27.1591 75.7661 27.2521 75.7826 27.3425C75.799 27.4329 75.8347 27.5188 75.8872 27.5943C75.9396 27.6698 76.0076 27.7332 76.0866 27.7802C76.1656 27.8272 76.2538 27.8568 76.3452 27.8669C79.6821 28.2377 81.3841 30.0555 82.2067 31.3789C82.8247 32.3728 84.022 33.1903 85.3416 32.9611L87.2945 32.6213C87.8505 32.5247 88.3712 32.2837 88.8046 31.9224C89.238 31.5611 89.5688 31.0922 89.7638 30.5627L91.0293 27.1253C91.1923 26.6831 91.2562 26.2104 91.2164 25.7408C91.1767 25.2711 91.0342 24.8159 90.7992 24.4073C90.5641 23.9988 90.2422 23.6468 89.8562 23.3764C89.4702 23.1059 89.0295 22.9235 88.5652 22.8421L84.7841 22.1804V19.5026C84.7841 18.9905 84.5807 18.4993 84.2185 18.1371C83.8563 17.775 83.3652 17.5715 82.853 17.5715ZM82.2093 19.5026C82.2093 19.3319 82.2771 19.1682 82.3978 19.0475C82.5186 18.9267 82.6823 18.8589 82.853 18.8589C83.0237 18.8589 83.1874 18.9267 83.3082 19.0475C83.4289 19.1682 83.4967 19.3319 83.4967 19.5026V22.7211C83.4969 22.8725 83.5504 23.019 83.6479 23.1349C83.7454 23.2507 83.8805 23.3285 84.0297 23.3545L88.3425 24.1102C88.6211 24.159 88.8856 24.2683 89.1172 24.4306C89.3489 24.5928 89.5421 24.8039 89.6832 25.049C89.8243 25.2941 89.9099 25.5672 89.9338 25.8491C89.9577 26.1309 89.9195 26.4145 89.8217 26.6799L88.5549 30.1173C88.4381 30.435 88.2398 30.7164 87.98 30.9333C87.7201 31.1502 87.4078 31.295 87.0744 31.3532L85.1214 31.693C84.4751 31.8051 83.7349 31.4008 83.2997 30.6992C82.3985 29.247 80.6039 27.3262 77.3146 26.7108C77.4176 26.546 77.5334 26.4186 77.657 26.3181C77.9184 26.1057 78.2544 25.9795 78.6574 25.9358C79.4839 25.8457 80.4842 26.1186 81.2772 26.5151C81.3754 26.5643 81.4844 26.5875 81.5941 26.5827C81.7038 26.5778 81.8104 26.545 81.9038 26.4873C81.9972 26.4297 82.0743 26.3491 82.1277 26.2532C82.1812 26.1574 82.2093 26.0494 82.2093 25.9396V19.5026Z" fill="#B4B2BA"/>
<path d="M100.176 19.9119V18.8182H107.812V19.9119H104.611V29H103.378V19.9119H100.176ZM110.764 29.179C110.28 29.179 109.841 29.0878 109.447 28.9055C109.052 28.7199 108.739 28.4531 108.507 28.1051C108.275 27.7538 108.159 27.3295 108.159 26.8324C108.159 26.3949 108.245 26.0402 108.418 25.7685C108.59 25.4934 108.82 25.2779 109.109 25.1222C109.397 24.9664 109.715 24.8504 110.063 24.7741C110.415 24.6946 110.768 24.6316 111.122 24.5852C111.586 24.5256 111.963 24.4808 112.251 24.451C112.543 24.4179 112.755 24.3632 112.887 24.2869C113.023 24.2107 113.091 24.0781 113.091 23.8892V23.8494C113.091 23.3589 112.957 22.9777 112.688 22.706C112.423 22.4342 112.021 22.2983 111.48 22.2983C110.92 22.2983 110.481 22.4209 110.163 22.6662C109.845 22.9115 109.621 23.1733 109.492 23.4517L108.378 23.054C108.577 22.59 108.842 22.2287 109.173 21.9702C109.508 21.7083 109.873 21.526 110.267 21.4233C110.665 21.3172 111.056 21.2642 111.441 21.2642C111.686 21.2642 111.968 21.294 112.286 21.3537C112.607 21.41 112.917 21.5277 113.215 21.7067C113.517 21.8857 113.767 22.1558 113.966 22.517C114.165 22.8783 114.264 23.3622 114.264 23.9688V29H113.091V27.9659H113.031C112.952 28.1316 112.819 28.3089 112.634 28.4979C112.448 28.6868 112.201 28.8475 111.893 28.9801C111.585 29.1127 111.209 29.179 110.764 29.179ZM110.943 28.125C111.407 28.125 111.798 28.0339 112.117 27.8516C112.438 27.6693 112.68 27.4339 112.843 27.1456C113.008 26.8572 113.091 26.554 113.091 26.2358V25.1619C113.041 25.2216 112.932 25.2763 112.763 25.326C112.597 25.3724 112.405 25.4138 112.186 25.4503C111.971 25.4834 111.76 25.5133 111.555 25.5398C111.353 25.563 111.189 25.5829 111.063 25.5994C110.758 25.6392 110.473 25.7038 110.208 25.7933C109.946 25.8795 109.734 26.0104 109.571 26.1861C109.412 26.3584 109.333 26.5937 109.333 26.892C109.333 27.2997 109.483 27.608 109.785 27.8168C110.09 28.0223 110.476 28.125 110.943 28.125ZM116.406 31.8636V21.3636H117.539V22.5767H117.679C117.765 22.4441 117.884 22.2751 118.037 22.0696C118.192 21.8608 118.414 21.6752 118.703 21.5128C118.994 21.3471 119.389 21.2642 119.886 21.2642C120.529 21.2642 121.096 21.425 121.586 21.7464C122.077 22.0679 122.46 22.5237 122.735 23.1136C123.01 23.7036 123.147 24.3996 123.147 25.2017C123.147 26.0104 123.01 26.7114 122.735 27.3047C122.46 27.8946 122.078 28.352 121.591 28.6768C121.104 28.9983 120.542 29.1591 119.906 29.1591C119.415 29.1591 119.023 29.0779 118.728 28.9155C118.433 28.7498 118.206 28.5625 118.047 28.3537C117.887 28.1416 117.765 27.9659 117.679 27.8267H117.579V31.8636H116.406ZM117.559 25.1818C117.559 25.7585 117.644 26.2673 117.813 26.7081C117.982 27.1456 118.229 27.4886 118.554 27.7372C118.878 27.9825 119.276 28.1051 119.747 28.1051C120.237 28.1051 120.647 27.9759 120.975 27.7173C121.306 27.4555 121.555 27.1042 121.721 26.6634C121.89 26.2192 121.974 25.7254 121.974 25.1818C121.974 24.6449 121.891 24.161 121.725 23.7301C121.563 23.2959 121.316 22.9529 120.985 22.701C120.657 22.4458 120.244 22.3182 119.747 22.3182C119.27 22.3182 118.868 22.4392 118.544 22.6811C118.219 22.9197 117.974 23.2545 117.808 23.6854C117.642 24.1129 117.559 24.6117 117.559 25.1818ZM131.977 29.1591C131.288 29.1591 130.683 28.995 130.162 28.6669C129.645 28.3388 129.241 27.8797 128.949 27.2898C128.661 26.6998 128.517 26.0104 128.517 25.2216C128.517 24.4261 128.661 23.7318 128.949 23.1385C129.241 22.5452 129.645 22.0845 130.162 21.7564C130.683 21.4283 131.288 21.2642 131.977 21.2642C132.666 21.2642 133.27 21.4283 133.787 21.7564C134.307 22.0845 134.711 22.5452 135 23.1385C135.291 23.7318 135.437 24.4261 135.437 25.2216C135.437 26.0104 135.291 26.6998 135 27.2898C134.711 27.8797 134.307 28.3388 133.787 28.6669C133.27 28.995 132.666 29.1591 131.977 29.1591ZM131.977 28.1051C132.501 28.1051 132.931 27.9709 133.27 27.7024C133.608 27.4339 133.858 27.081 134.02 26.6435C134.183 26.206 134.264 25.732 134.264 25.2216C134.264 24.7112 134.183 24.2356 134.02 23.7947C133.858 23.3539 133.608 22.9976 133.27 22.7259C132.931 22.4541 132.501 22.3182 131.977 22.3182C131.453 22.3182 131.022 22.4541 130.684 22.7259C130.346 22.9976 130.096 23.3539 129.934 23.7947C129.771 24.2356 129.69 24.7112 129.69 25.2216C129.69 25.732 129.771 26.206 129.934 26.6435C130.096 27.081 130.346 27.4339 130.684 27.7024C131.022 27.9709 131.453 28.1051 131.977 28.1051ZM138.401 24.4062V29H137.228V21.3636H138.362V22.5568H138.461C138.64 22.169 138.912 21.8575 139.276 21.6222C139.641 21.3835 140.112 21.2642 140.688 21.2642C141.205 21.2642 141.658 21.3703 142.046 21.5824C142.433 21.7912 142.735 22.1094 142.95 22.5369C143.166 22.9612 143.274 23.4981 143.274 24.1477V29H142.1V24.2273C142.1 23.6274 141.945 23.16 141.633 22.8253C141.321 22.4872 140.894 22.3182 140.35 22.3182C139.976 22.3182 139.641 22.3994 139.346 22.5618C139.054 22.7242 138.824 22.9612 138.655 23.2727C138.486 23.5843 138.401 23.9621 138.401 24.4062ZM152.676 21.3636V22.358H148.719V21.3636H152.676ZM149.872 19.5341H151.045V26.8125C151.045 27.1439 151.094 27.3925 151.19 27.5582C151.289 27.7206 151.415 27.83 151.567 27.8864C151.723 27.9394 151.887 27.9659 152.06 27.9659C152.189 27.9659 152.295 27.9593 152.378 27.946C152.461 27.9295 152.527 27.9162 152.577 27.9062L152.815 28.9602C152.736 28.9901 152.625 29.0199 152.482 29.0497C152.34 29.0829 152.159 29.0994 151.94 29.0994C151.609 29.0994 151.284 29.0282 150.966 28.8857C150.651 28.7431 150.389 28.526 150.18 28.2344C149.975 27.9427 149.872 27.5748 149.872 27.1307V19.5341ZM155.778 24.4062V29H154.605V18.8182H155.778V22.5568H155.878C156.057 22.1624 156.325 21.8492 156.683 21.6172C157.045 21.3819 157.525 21.2642 158.125 21.2642C158.645 21.2642 159.101 21.3686 159.492 21.5774C159.883 21.7829 160.187 22.0994 160.402 22.527C160.621 22.9512 160.73 23.4915 160.73 24.1477V29H159.557V24.2273C159.557 23.6207 159.399 23.1518 159.085 22.8203C158.773 22.4856 158.34 22.3182 157.787 22.3182C157.402 22.3182 157.058 22.3994 156.753 22.5618C156.451 22.7242 156.213 22.9612 156.037 23.2727C155.865 23.5843 155.778 23.9621 155.778 24.4062ZM166.078 29.1591C165.343 29.1591 164.708 28.9967 164.174 28.6719C163.644 28.3438 163.235 27.8864 162.946 27.2997C162.661 26.7098 162.519 26.0237 162.519 25.2415C162.519 24.4593 162.661 23.7699 162.946 23.1733C163.235 22.5734 163.636 22.1061 164.149 21.7713C164.666 21.4332 165.27 21.2642 165.959 21.2642C166.357 21.2642 166.749 21.3305 167.137 21.4631C167.525 21.5956 167.878 21.8111 168.196 22.1094C168.514 22.4044 168.768 22.7955 168.957 23.2827C169.146 23.7699 169.24 24.3698 169.24 25.0824V25.5795H163.354V24.5653H168.047C168.047 24.1345 167.961 23.75 167.789 23.4119C167.619 23.0739 167.378 22.8071 167.063 22.6115C166.751 22.416 166.383 22.3182 165.959 22.3182C165.492 22.3182 165.087 22.4342 164.746 22.6662C164.408 22.8949 164.148 23.1932 163.965 23.5611C163.783 23.929 163.692 24.3234 163.692 24.7443V25.4205C163.692 25.9972 163.791 26.486 163.99 26.8871C164.192 27.2848 164.472 27.5881 164.83 27.7969C165.188 28.0024 165.604 28.1051 166.078 28.1051C166.387 28.1051 166.665 28.062 166.914 27.9759C167.165 27.8864 167.383 27.7538 167.565 27.5781C167.747 27.3991 167.888 27.1771 167.987 26.9119L169.121 27.2301C169.002 27.6146 168.801 27.9527 168.519 28.2443C168.238 28.5327 167.89 28.758 167.475 28.9205C167.061 29.0795 166.595 29.1591 166.078 29.1591ZM174.963 29V21.3636H176.096V22.517H176.176C176.315 22.1392 176.567 21.8326 176.931 21.5973C177.296 21.362 177.707 21.2443 178.164 21.2443C178.25 21.2443 178.358 21.246 178.487 21.2493C178.617 21.2526 178.714 21.2576 178.781 21.2642V22.4574C178.741 22.4474 178.65 22.4325 178.507 22.4126C178.368 22.3894 178.221 22.3778 178.065 22.3778C177.694 22.3778 177.362 22.4557 177.07 22.6115C176.782 22.764 176.553 22.9761 176.384 23.2479C176.219 23.5163 176.136 23.8229 176.136 24.1676V29H174.963ZM180.172 29V21.3636H181.345V29H180.172ZM180.768 20.0909C180.539 20.0909 180.342 20.013 180.176 19.8572C180.014 19.7015 179.933 19.5142 179.933 19.2955C179.933 19.0767 180.014 18.8894 180.176 18.7337C180.342 18.5779 180.539 18.5 180.768 18.5C180.997 18.5 181.192 18.5779 181.355 18.7337C181.52 18.8894 181.603 19.0767 181.603 19.2955C181.603 19.5142 181.52 19.7015 181.355 19.8572C181.192 20.013 180.997 20.0909 180.768 20.0909ZM186.576 32.0227C186.009 32.0227 185.522 31.9498 185.115 31.804C184.707 31.6615 184.367 31.4725 184.095 31.2372C183.827 31.0052 183.613 30.7566 183.454 30.4915L184.389 29.8352C184.495 29.9744 184.629 30.1335 184.791 30.3125C184.954 30.4948 185.176 30.6522 185.458 30.7848C185.743 30.9207 186.115 30.9886 186.576 30.9886C187.193 30.9886 187.701 30.8395 188.102 30.5412C188.503 30.2429 188.704 29.7756 188.704 29.1392V27.5881H188.605C188.518 27.7273 188.396 27.8996 188.237 28.1051C188.081 28.3073 187.856 28.4879 187.561 28.647C187.269 28.8028 186.874 28.8807 186.377 28.8807C185.761 28.8807 185.207 28.7348 184.717 28.4432C184.23 28.1515 183.843 27.7273 183.558 27.1705C183.277 26.6136 183.136 25.9375 183.136 25.142C183.136 24.3598 183.273 23.6787 183.548 23.0987C183.824 22.5154 184.206 22.0646 184.697 21.7464C185.187 21.425 185.754 21.2642 186.397 21.2642C186.894 21.2642 187.289 21.3471 187.58 21.5128C187.875 21.6752 188.101 21.8608 188.257 22.0696C188.416 22.2751 188.538 22.4441 188.624 22.5767H188.744V21.3636H189.877V29.2188C189.877 29.875 189.728 30.4086 189.43 30.8196C189.135 31.2339 188.737 31.5372 188.237 31.7294C187.74 31.925 187.186 32.0227 186.576 32.0227ZM186.536 27.8267C187.007 27.8267 187.405 27.719 187.73 27.5036C188.054 27.2881 188.301 26.9782 188.47 26.5739C188.639 26.1695 188.724 25.6856 188.724 25.1222C188.724 24.572 188.641 24.0864 188.475 23.6655C188.31 23.2446 188.064 22.9148 187.74 22.6761C187.415 22.4375 187.014 22.3182 186.536 22.3182C186.039 22.3182 185.625 22.4441 185.294 22.696C184.965 22.9479 184.718 23.286 184.553 23.7102C184.39 24.1345 184.309 24.6051 184.309 25.1222C184.309 25.6525 184.392 26.1214 184.558 26.5291C184.727 26.9335 184.975 27.2517 185.303 27.4837C185.635 27.7124 186.046 27.8267 186.536 27.8267ZM193.198 24.4062V29H192.025V18.8182H193.198V22.5568H193.298C193.477 22.1624 193.745 21.8492 194.103 21.6172C194.464 21.3819 194.945 21.2642 195.545 21.2642C196.065 21.2642 196.521 21.3686 196.912 21.5774C197.303 21.7829 197.606 22.0994 197.822 22.527C198.041 22.9512 198.15 23.4915 198.15 24.1477V29H196.977V24.2273C196.977 23.6207 196.819 23.1518 196.504 22.8203C196.193 22.4856 195.76 22.3182 195.207 22.3182C194.822 22.3182 194.478 22.3994 194.173 22.5618C193.871 22.7242 193.633 22.9612 193.457 23.2727C193.285 23.5843 193.198 23.9621 193.198 24.4062ZM203.618 21.3636V22.358H199.66V21.3636H203.618ZM200.814 19.5341H201.987V26.8125C201.987 27.1439 202.035 27.3925 202.131 27.5582C202.23 27.7206 202.356 27.83 202.509 27.8864C202.665 27.9394 202.829 27.9659 203.001 27.9659C203.13 27.9659 203.236 27.9593 203.319 27.946C203.402 27.9295 203.468 27.9162 203.518 27.9062L203.757 28.9602C203.677 28.9901 203.566 29.0199 203.424 29.0497C203.281 29.0829 203.1 29.0994 202.882 29.0994C202.55 29.0994 202.225 29.0282 201.907 28.8857C201.592 28.7431 201.331 28.526 201.122 28.2344C200.916 27.9427 200.814 27.5748 200.814 27.1307V19.5341ZM211.567 29.179C211.083 29.179 210.644 29.0878 210.25 28.9055C209.855 28.7199 209.542 28.4531 209.31 28.1051C209.078 27.7538 208.962 27.3295 208.962 26.8324C208.962 26.3949 209.048 26.0402 209.221 25.7685C209.393 25.4934 209.623 25.2779 209.912 25.1222C210.2 24.9664 210.518 24.8504 210.866 24.7741C211.217 24.6946 211.57 24.6316 211.925 24.5852C212.389 24.5256 212.765 24.4808 213.054 24.451C213.345 24.4179 213.557 24.3632 213.69 24.2869C213.826 24.2107 213.894 24.0781 213.894 23.8892V23.8494C213.894 23.3589 213.76 22.9777 213.491 22.706C213.226 22.4342 212.823 22.2983 212.283 22.2983C211.723 22.2983 211.284 22.4209 210.966 22.6662C210.647 22.9115 210.424 23.1733 210.294 23.4517L209.181 23.054C209.38 22.59 209.645 22.2287 209.976 21.9702C210.311 21.7083 210.676 21.526 211.07 21.4233C211.468 21.3172 211.859 21.2642 212.243 21.2642C212.489 21.2642 212.77 21.294 213.088 21.3537C213.41 21.41 213.72 21.5277 214.018 21.7067C214.32 21.8857 214.57 22.1558 214.769 22.517C214.968 22.8783 215.067 23.3622 215.067 23.9688V29H213.894V27.9659H213.834C213.755 28.1316 213.622 28.3089 213.436 28.4979C213.251 28.6868 213.004 28.8475 212.696 28.9801C212.387 29.1127 212.011 29.179 211.567 29.179ZM211.746 28.125C212.21 28.125 212.601 28.0339 212.919 27.8516C213.241 27.6693 213.483 27.4339 213.645 27.1456C213.811 26.8572 213.894 26.554 213.894 26.2358V25.1619C213.844 25.2216 213.735 25.2763 213.566 25.326C213.4 25.3724 213.208 25.4138 212.989 25.4503C212.774 25.4834 212.563 25.5133 212.358 25.5398C212.155 25.563 211.991 25.5829 211.865 25.5994C211.56 25.6392 211.275 25.7038 211.01 25.7933C210.748 25.8795 210.536 26.0104 210.374 26.1861C210.215 26.3584 210.135 26.5937 210.135 26.892C210.135 27.2997 210.286 27.608 210.588 27.8168C210.893 28.0223 211.279 28.125 211.746 28.125ZM218.382 24.4062V29H217.209V21.3636H218.342V22.5568H218.442C218.621 22.169 218.892 21.8575 219.257 21.6222C219.622 21.3835 220.092 21.2642 220.669 21.2642C221.186 21.2642 221.638 21.3703 222.026 21.5824C222.414 21.7912 222.715 22.1094 222.931 22.5369C223.146 22.9612 223.254 23.4981 223.254 24.1477V29H222.081V24.2273C222.081 23.6274 221.925 23.16 221.613 22.8253C221.302 22.4872 220.874 22.3182 220.331 22.3182C219.956 22.3182 219.622 22.3994 219.327 22.5618C219.035 22.7242 218.805 22.9612 218.635 23.2727C218.466 23.5843 218.382 23.9621 218.382 24.4062ZM230.807 23.0739L229.753 23.3722C229.687 23.1965 229.589 23.0258 229.46 22.8601C229.334 22.6911 229.162 22.5518 228.943 22.4425C228.724 22.3331 228.444 22.2784 228.103 22.2784C227.635 22.2784 227.246 22.3861 226.934 22.6016C226.626 22.8137 226.472 23.0838 226.472 23.4119C226.472 23.7036 226.578 23.9339 226.79 24.103C227.002 24.272 227.334 24.4129 227.784 24.5256L228.918 24.804C229.601 24.9697 230.109 25.2232 230.444 25.5646C230.779 25.9027 230.946 26.3385 230.946 26.8722C230.946 27.3097 230.82 27.7008 230.569 28.0455C230.32 28.3902 229.972 28.6619 229.525 28.8608C229.077 29.0597 228.557 29.1591 227.963 29.1591C227.185 29.1591 226.54 28.9901 226.029 28.652C225.519 28.3139 225.196 27.8201 225.06 27.1705L226.174 26.892C226.28 27.303 226.48 27.6113 226.775 27.8168C227.074 28.0223 227.463 28.125 227.944 28.125C228.49 28.125 228.925 28.009 229.246 27.777C229.571 27.5417 229.733 27.2599 229.733 26.9318C229.733 26.6667 229.641 26.4446 229.455 26.2656C229.269 26.0833 228.984 25.9474 228.6 25.858L227.327 25.5597C226.628 25.3939 226.114 25.1371 225.786 24.7891C225.461 24.4377 225.299 23.9986 225.299 23.4716C225.299 23.0407 225.42 22.6596 225.662 22.3281C225.907 21.9967 226.24 21.7365 226.661 21.5476C227.085 21.3587 227.566 21.2642 228.103 21.2642C228.858 21.2642 229.452 21.4299 229.882 21.7614C230.317 22.0928 230.625 22.5303 230.807 23.0739ZM234.443 29L232.116 21.3636H233.349L234.999 27.2102H235.079L236.71 21.3636H237.963L239.573 27.1903H239.653L241.303 21.3636H242.536L240.21 29H239.056L237.386 23.1335H237.267L235.596 29H234.443ZM247.029 29.1591C246.294 29.1591 245.659 28.9967 245.125 28.6719C244.595 28.3438 244.186 27.8864 243.897 27.2997C243.612 26.7098 243.47 26.0237 243.47 25.2415C243.47 24.4593 243.612 23.7699 243.897 23.1733C244.186 22.5734 244.587 22.1061 245.1 21.7713C245.618 21.4332 246.221 21.2642 246.91 21.2642C247.308 21.2642 247.701 21.3305 248.088 21.4631C248.476 21.5956 248.829 21.8111 249.147 22.1094C249.466 22.4044 249.719 22.7955 249.908 23.2827C250.097 23.7699 250.191 24.3698 250.191 25.0824V25.5795H244.305V24.5653H248.998C248.998 24.1345 248.912 23.75 248.74 23.4119C248.571 23.0739 248.329 22.8071 248.014 22.6115C247.702 22.416 247.334 22.3182 246.91 22.3182C246.443 22.3182 246.038 22.4342 245.697 22.6662C245.359 22.8949 245.099 23.1932 244.917 23.5611C244.734 23.929 244.643 24.3234 244.643 24.7443V25.4205C244.643 25.9972 244.743 26.486 244.941 26.8871C245.144 27.2848 245.424 27.5881 245.782 27.7969C246.14 28.0024 246.556 28.1051 247.029 28.1051C247.338 28.1051 247.616 28.062 247.865 27.9759C248.117 27.8864 248.334 27.7538 248.516 27.5781C248.698 27.3991 248.839 27.1771 248.939 26.9119L250.072 27.2301C249.953 27.6146 249.752 27.9527 249.471 28.2443C249.189 28.5327 248.841 28.758 248.426 28.9205C248.012 29.0795 247.547 29.1591 247.029 29.1591ZM251.976 29V21.3636H253.11V22.517H253.189C253.328 22.1392 253.58 21.8326 253.945 21.5973C254.31 21.362 254.721 21.2443 255.178 21.2443C255.264 21.2443 255.372 21.246 255.501 21.2493C255.63 21.2526 255.728 21.2576 255.794 21.2642V22.4574C255.755 22.4474 255.663 22.4325 255.521 22.4126C255.382 22.3894 255.234 22.3778 255.078 22.3778C254.707 22.3778 254.376 22.4557 254.084 22.6115C253.796 22.764 253.567 22.9761 253.398 23.2479C253.232 23.5163 253.15 23.8229 253.15 24.1676V29H251.976Z" fill="#B4B2BA"/>
</svg>
