<svg width="18" height="20" viewBox="0 0 18 20" fill="none" xmlns="http://www.w3.org/2000/svg">
<path d="M3.67554 1.13636C3.67554 0.901285 3.76892 0.675835 3.93515 0.50961C4.10137 0.343384 4.32682 0.25 4.5619 0.25L11.6528 0.25C11.8879 0.25 12.1133 0.343384 12.2796 0.50961C12.4458 0.675835 12.5392 0.901285 12.5392 1.13636C12.5392 1.37144 12.4458 1.59689 12.2796 1.76312C12.1133 1.92934 11.8879 2.02273 11.6528 2.02273H4.5619C4.32682 2.02273 4.10137 1.92934 3.93515 1.76312C3.76892 1.59689 3.67554 1.37144 3.67554 1.13636V1.13636ZM7.22099 13.5455C7.22099 13.7805 7.31437 14.006 7.4806 14.1722C7.64683 14.3384 7.87228 14.4318 8.10735 14.4318C8.34243 14.4318 8.56788 14.3384 8.73411 14.1722C8.90033 14.006 8.99372 13.7805 8.99372 13.5455V8.22727C8.99372 7.99219 8.90033 7.76674 8.73411 7.60052C8.56788 7.43429 8.34243 7.34091 8.10735 7.34091C7.87228 7.34091 7.64683 7.43429 7.4806 7.60052C7.31437 7.76674 7.22099 7.99219 7.22099 8.22727V13.5455ZM8.10735 3.79545C7.05976 3.79545 6.02243 4.00179 5.05458 4.40269C4.08674 4.80358 3.20733 5.39119 2.46657 6.13194C1.72581 6.8727 1.13821 7.75211 0.737315 8.71996C0.336419 9.6878 0.130081 10.7251 0.130081 11.7727C0.130081 12.8203 0.336419 13.8576 0.737315 14.8255C1.13821 15.7933 1.72581 16.6728 2.46657 17.4135C3.20733 18.1543 4.08674 18.7419 5.05458 19.1428C6.02243 19.5437 7.05976 19.75 8.10735 19.75C10.2231 19.75 12.2521 18.9095 13.7481 17.4135C15.2442 15.9175 16.0846 13.8884 16.0846 11.7727C16.0846 9.65702 15.2442 7.62797 13.7481 6.13194C12.2521 4.63591 10.2231 3.79545 8.10735 3.79545V3.79545ZM1.90281 11.7727C1.90281 10.9579 2.06329 10.1511 2.3751 9.39835C2.68691 8.64558 3.14393 7.9616 3.72008 7.38545C4.29622 6.80931 4.98021 6.35228 5.73298 6.04047C6.48575 5.72867 7.29256 5.56818 8.10735 5.56818C8.92215 5.56818 9.72896 5.72867 10.4817 6.04047C11.2345 6.35228 11.9185 6.80931 12.4946 7.38545C13.0708 7.9616 13.5278 8.64558 13.8396 9.39835C14.1514 10.1511 14.3119 10.9579 14.3119 11.7727C14.3119 13.4183 13.6582 14.9964 12.4946 16.16C11.3311 17.3236 9.7529 17.9773 8.10735 17.9773C6.46181 17.9773 4.88366 17.3236 3.72008 16.16C2.5565 14.9964 1.90281 13.4183 1.90281 11.7727ZM16.347 7.08032C16.4289 7.16485 16.5268 7.23223 16.635 7.27852C16.7432 7.32482 16.8595 7.3491 16.9772 7.34995C17.0949 7.35081 17.2116 7.32821 17.3204 7.28349C17.4293 7.23877 17.5282 7.17282 17.6113 7.08948C17.6944 7.00614 17.76 6.90709 17.8045 6.7981C17.8489 6.68911 17.8711 6.57237 17.87 6.45468C17.8688 6.337 17.8442 6.22073 17.7976 6.11266C17.751 6.00458 17.6833 5.90687 17.5985 5.82523L15.8223 4.05605C15.7404 3.97151 15.6425 3.90413 15.5343 3.85784C15.4261 3.81154 15.3097 3.78726 15.192 3.78641C15.0744 3.78556 14.9577 3.80815 14.8488 3.85287C14.7399 3.89759 14.6411 3.96355 14.558 4.04688C14.4749 4.13022 14.4092 4.22927 14.3648 4.33826C14.3204 4.44725 14.2981 4.564 14.2993 4.68168C14.3005 4.79937 14.3251 4.91564 14.3717 5.02371C14.4183 5.13178 14.486 5.22949 14.5707 5.31114L16.347 7.08032V7.08032Z" fill="#0D1A2D"/>
</svg>
