<svg width="88" height="25" viewBox="0 0 88 25" fill="none" xmlns="http://www.w3.org/2000/svg">
<rect y="0.5" width="88" height="24" rx="12" fill="#F5DF4D"/>
<path d="M19.6 8.03725V7.57148C19.6 7.14543 19.2546 6.80005 18.8286 6.80005H13.1714C12.7454 6.80005 12.4 7.14543 12.4 7.57148V8.03725H10.7714C10.3454 8.03725 10 8.38263 10 8.80868V9.80005C10 11.315 11.1334 12.5588 12.5944 12.7592C12.8037 13.3729 13.1748 13.9187 13.6687 14.3388C14.1625 14.7589 14.7607 15.0378 15.4 15.146V15.8C15.4 16.1183 15.2736 16.4235 15.0485 16.6486C14.8235 16.8736 14.5183 17 14.2 17C13.8686 17 13.6 17.2687 13.6 17.6C13.6 17.9314 13.8686 18.2 14.2 18.2H17.8C18.1314 18.2 18.4 17.9314 18.4 17.6C18.4 17.2687 18.1314 17 17.8 17C17.4817 17 17.1765 16.8736 16.9515 16.6486C16.7264 16.4235 16.6 16.1183 16.6 15.8V15.146C17.2393 15.0378 17.8375 14.7589 18.3313 14.3388C18.8252 13.9187 19.1963 13.3729 19.4056 12.7592C20.8666 12.5588 22 11.315 22 9.80005V8.80868C22 8.38263 21.6546 8.03725 21.2286 8.03725H19.6ZM11.2 9.80005V9.23725H12.4V11.4968C12.0493 11.3725 11.7457 11.1426 11.5308 10.8388C11.316 10.535 11.2004 10.1722 11.2 9.80005ZM20.8 9.80005C20.7995 10.1722 20.684 10.5351 20.4691 10.839C20.2543 11.1429 19.9507 11.3729 19.6 11.4974V9.23725H20.8V9.80005Z" fill="black"/>
<path d="M27.524 10.032C27.524 9.856 27.564 9.68 27.644 9.504C27.732 9.328 27.864 9.136 28.04 8.928L28.796 9.348C28.7 9.452 28.632 9.552 28.592 9.648C28.552 9.736 28.532 9.824 28.532 9.912C28.532 10.024 28.564 10.116 28.628 10.188C28.692 10.26 28.812 10.324 28.988 10.38C29.172 10.428 29.44 10.488 29.792 10.56C30.624 10.712 31.2 10.948 31.52 11.268C31.84 11.58 32 11.984 32 12.48C32 13.008 31.776 13.46 31.328 13.836C30.888 14.212 30.268 14.428 29.468 14.484C29.388 14.484 29.308 14.476 29.228 14.46C29.148 14.444 29.068 14.424 28.988 14.4L29.468 14.292C29.82 14.412 30.176 14.568 30.536 14.76C30.896 14.944 31.252 15.156 31.604 15.396C31.956 15.628 32.3 15.884 32.636 16.164L32.084 16.812C31.612 16.42 31.172 16.092 30.764 15.828C30.364 15.556 29.964 15.332 29.564 15.156C29.172 14.972 28.752 14.812 28.304 14.676C27.856 14.54 27.348 14.408 26.78 14.28L26.96 13.428C27.24 13.508 27.524 13.576 27.812 13.632C28.1 13.68 28.46 13.704 28.892 13.704C29.7 13.704 30.26 13.596 30.572 13.38C30.892 13.164 31.052 12.876 31.052 12.516C31.052 12.316 31.004 12.148 30.908 12.012C30.82 11.868 30.664 11.748 30.44 11.652C30.216 11.548 29.896 11.456 29.48 11.376C29.016 11.28 28.64 11.172 28.352 11.052C28.064 10.932 27.852 10.788 27.716 10.62C27.588 10.452 27.524 10.256 27.524 10.032ZM40.7336 9.036V9.888H39.4736V16.5H38.5496C38.2136 16.052 37.8416 15.66 37.4336 15.324C37.0256 14.98 36.5536 14.692 36.0176 14.46C35.4816 14.228 34.8456 14.06 34.1096 13.956L33.6776 12.864C33.9256 12.696 34.1856 12.536 34.4576 12.384C34.7296 12.232 35.0056 12.084 35.2856 11.94C35.5736 11.796 35.8536 11.66 36.1256 11.532C35.8216 11.3 35.4696 11.096 35.0696 10.92C34.6776 10.736 34.2136 10.588 33.6776 10.476L34.0496 9.66L34.0736 9.888H32.9816V9.036H40.7336ZM38.5496 9.888H34.7216L34.4696 9.78C34.8056 9.86 35.1416 9.988 35.4776 10.164C35.8216 10.34 36.1376 10.532 36.4256 10.74C36.7216 10.94 36.9576 11.132 37.1336 11.316L37.1936 11.988C36.9056 12.116 36.6016 12.256 36.2816 12.408C35.9696 12.56 35.6656 12.712 35.3696 12.864C35.0816 13.016 34.8256 13.168 34.6016 13.32L34.4576 13.14C35.1456 13.236 35.7456 13.396 36.2576 13.62C36.7776 13.844 37.2376 14.116 37.6376 14.436C38.0376 14.756 38.4056 15.112 38.7416 15.504L38.5856 15.552C38.5776 15.384 38.5696 15.204 38.5616 15.012C38.5536 14.812 38.5496 14.624 38.5496 14.448V9.888ZM35.2616 16.572C35.0616 16.572 34.8896 16.508 34.7456 16.38C34.6096 16.252 34.5416 16.084 34.5416 15.876C34.5416 15.668 34.6096 15.496 34.7456 15.36C34.8896 15.224 35.0616 15.156 35.2616 15.156C35.4616 15.156 35.6296 15.224 35.7656 15.36C35.9096 15.496 35.9816 15.668 35.9816 15.876C35.9816 16.084 35.9096 16.252 35.7656 16.38C35.6296 16.508 35.4616 16.572 35.2616 16.572ZM52.5245 9.036V9.888H51.2645V16.5H50.3405V11.748L50.6045 12.516C50.2765 12.036 49.9765 11.628 49.7045 11.292C49.4325 10.948 49.1725 10.668 48.9245 10.452C48.6845 10.236 48.4405 10.08 48.1925 9.984C47.9445 9.88 47.6765 9.828 47.3885 9.828C47.0685 9.828 46.7765 9.888 46.5125 10.008C46.2565 10.128 46.0205 10.288 45.8045 10.488C45.5885 10.688 45.3885 10.904 45.2045 11.136L45.1085 11.16C45.2365 11.08 45.3605 11.02 45.4805 10.98C45.6085 10.94 45.7485 10.92 45.9005 10.92C46.3645 10.92 46.7045 11.048 46.9205 11.304C47.1365 11.552 47.2445 11.86 47.2445 12.228C47.2445 12.316 47.2405 12.4 47.2325 12.48C47.2245 12.56 47.2125 12.62 47.1965 12.66L46.9925 12.588C47.0885 12.484 47.1805 12.384 47.2685 12.288C47.3565 12.192 47.4485 12.096 47.5445 12C47.6485 11.904 47.7525 11.804 47.8565 11.7L49.3445 10.308L49.9325 10.944L46.5245 14.16L45.8165 13.5L46.8005 12.564L46.3685 13.08L46.0085 13.356C46.1285 13.22 46.2285 13.076 46.3085 12.924C46.3965 12.764 46.4405 12.584 46.4405 12.384C46.4405 12.184 46.3805 12.024 46.2605 11.904C46.1405 11.784 45.9645 11.724 45.7325 11.724C45.6045 11.724 45.4805 11.74 45.3605 11.772C45.2405 11.804 45.1165 11.86 44.9885 11.94L44.0765 11.076C44.3965 10.652 44.7245 10.284 45.0605 9.972C45.3965 9.652 45.7485 9.404 46.1165 9.228C46.4845 9.044 46.8805 8.952 47.3045 8.952C47.7525 8.952 48.1565 9.036 48.5165 9.204C48.8765 9.372 49.2245 9.624 49.5605 9.96C49.8965 10.288 50.2485 10.704 50.6165 11.208L50.4005 11.148C50.3765 10.956 50.3605 10.748 50.3525 10.524C50.3445 10.3 50.3405 10.06 50.3405 9.804V8.244H50.9765L51.2525 9.036H52.5245ZM48.9703 19.692C48.7543 19.692 48.5183 19.644 48.2623 19.548C48.0063 19.46 47.7903 19.316 47.6143 19.116C47.4303 18.916 47.3383 18.648 47.3383 18.312C47.3383 17.904 47.4943 17.576 47.8063 17.328C48.1183 17.088 48.5543 16.968 49.1143 16.968C49.6103 16.968 50.0903 17.056 50.5543 17.232C51.0103 17.416 51.4783 17.668 51.9583 17.988C52.4303 18.308 52.9343 18.68 53.4703 19.104L52.9303 19.752C52.3943 19.304 51.9063 18.932 51.4663 18.636C51.0263 18.34 50.6103 18.116 50.2183 17.964C49.8263 17.812 49.4383 17.736 49.0543 17.736C48.7663 17.736 48.5503 17.792 48.4063 17.904C48.2623 18.016 48.1903 18.16 48.1903 18.336C48.1903 18.56 48.2703 18.716 48.4303 18.804C48.5823 18.9 48.7623 18.948 48.9703 18.948C49.2663 18.948 49.5063 18.884 49.6903 18.756C49.8663 18.636 50.0023 18.484 50.0983 18.3C50.1943 18.116 50.2583 17.924 50.2903 17.724C50.3223 17.532 50.3383 17.36 50.3383 17.208V16.404H51.2623V17.04C51.2623 17.264 51.2383 17.524 51.1903 17.82C51.1343 18.124 51.0303 18.416 50.8783 18.696C50.7183 18.984 50.4863 19.22 50.1823 19.404C49.8783 19.596 49.4743 19.692 48.9703 19.692ZM59.6743 9.036V9.888H58.4143V16.5H57.4903C57.2503 16.02 56.9183 15.58 56.4943 15.18C56.0783 14.772 55.5983 14.428 55.0543 14.148C54.5103 13.868 53.9303 13.68 53.3143 13.584L52.8463 12.432C53.6143 11.968 54.4063 11.548 55.2223 11.172C56.0463 10.796 56.8943 10.476 57.7663 10.212L57.4903 10.716V9.888H52.2823V9.036H59.6743ZM57.4903 10.812L57.7423 11.148C57.1343 11.348 56.4943 11.596 55.8223 11.892C55.1503 12.18 54.5303 12.5 53.9623 12.852C54.3943 12.948 54.8543 13.112 55.3423 13.344C55.8303 13.576 56.2823 13.868 56.6983 14.22C57.1143 14.572 57.4343 14.98 57.6583 15.444H57.5503C57.5343 15.26 57.5183 15.076 57.5023 14.892C57.4943 14.708 57.4903 14.488 57.4903 14.232V10.812ZM54.6223 16.572C54.4223 16.572 54.2503 16.508 54.1063 16.38C53.9703 16.252 53.9023 16.084 53.9023 15.876C53.9023 15.668 53.9703 15.496 54.1063 15.36C54.2503 15.224 54.4223 15.156 54.6223 15.156C54.8223 15.156 54.9903 15.224 55.1263 15.36C55.2703 15.496 55.3423 15.668 55.3423 15.876C55.3423 16.084 55.2703 16.252 55.1263 16.38C54.9903 16.508 54.8223 16.572 54.6223 16.572ZM65.5508 12.78C64.9908 12.78 64.5228 12.656 64.1468 12.408C63.7788 12.152 63.4948 11.768 63.2948 11.256L63.4388 11.232C63.3828 11.488 63.2908 11.744 63.1628 12C63.0428 12.256 62.8788 12.472 62.6708 12.648C62.4708 12.816 62.2188 12.9 61.9148 12.9C61.6828 12.9 61.4628 12.86 61.2548 12.78C61.0548 12.692 60.8508 12.548 60.6428 12.348C60.4428 12.14 60.2268 11.856 59.9948 11.496L60.7268 11.064C60.9588 11.456 61.1468 11.708 61.2908 11.82C61.4428 11.932 61.6068 11.988 61.7828 11.988C61.9748 11.988 62.1428 11.924 62.2868 11.796C62.4388 11.668 62.5588 11.452 62.6468 11.148C62.7348 10.844 62.7868 10.424 62.8028 9.888H63.6308C63.6948 10.184 63.7788 10.464 63.8828 10.728C63.9868 10.984 64.1148 11.212 64.2668 11.412C64.4268 11.612 64.6108 11.768 64.8188 11.88C65.0348 11.992 65.2828 12.048 65.5628 12.048C65.8428 12.048 66.0548 11.976 66.1988 11.832C66.3508 11.68 66.4268 11.468 66.4268 11.196C66.4268 10.892 66.3428 10.604 66.1748 10.332C66.0148 10.052 65.8188 9.808 65.5868 9.6L66.5468 9.408C66.6748 9.52 66.7988 9.668 66.9188 9.852C67.0468 10.028 67.1508 10.232 67.2308 10.464C67.3108 10.688 67.3508 10.932 67.3508 11.196C67.3508 11.732 67.1908 12.132 66.8708 12.396C66.5508 12.652 66.1108 12.78 65.5508 12.78ZM69.4268 9.036V9.888H59.4308V9.036H69.4268ZM66.1028 12.276V12.684L66.0788 12.624C66.5828 12.696 67.0468 12.824 67.4708 13.008C67.9028 13.192 68.2508 13.44 68.5148 13.752C68.7788 14.056 68.9108 14.428 68.9108 14.868C68.9108 15.252 68.7868 15.58 68.5388 15.852C68.2908 16.124 67.9188 16.26 67.4228 16.26C67.3188 16.26 67.2108 16.256 67.0988 16.248C66.9948 16.232 66.8948 16.216 66.7988 16.2L66.8468 15.36C66.8868 15.368 66.9348 15.376 66.9908 15.384C67.0548 15.384 67.1228 15.384 67.1948 15.384C67.5228 15.384 67.7348 15.324 67.8308 15.204C67.9348 15.084 67.9868 14.944 67.9868 14.784C67.9868 14.472 67.8268 14.196 67.5068 13.956C67.1948 13.708 66.7228 13.532 66.0908 13.428L66.1028 13.344V17.016H65.1788C64.9388 16.664 64.6468 16.364 64.3028 16.116C63.9588 15.86 63.5748 15.656 63.1508 15.504C62.7348 15.344 62.2988 15.24 61.8428 15.192L61.3988 14.112C62.0388 13.792 62.7028 13.496 63.3908 13.224C64.0788 12.952 64.7548 12.752 65.4188 12.624L65.1788 13.068V12.396L66.1028 12.276ZM65.1788 13.08L65.4668 13.428C64.9548 13.556 64.4188 13.732 63.8588 13.956C63.2988 14.172 62.7948 14.384 62.3468 14.592L62.2748 14.436C62.9148 14.532 63.4788 14.716 63.9668 14.988C64.4628 15.26 64.8828 15.564 65.2268 15.9C65.2188 15.764 65.2068 15.608 65.1908 15.432C65.1828 15.256 65.1788 15.112 65.1788 15V13.08ZM72.6245 9.036V9.888H71.3645V16.5H70.4405V10.872C70.3445 10.6 70.2005 10.368 70.0085 10.176C69.8245 9.984 69.5845 9.888 69.2885 9.888H69.1925V9.036H69.3725C69.5645 9.036 69.7645 9.1 69.9725 9.228C70.1805 9.348 70.3485 9.536 70.4765 9.792C70.4685 9.752 70.4605 9.66 70.4525 9.516C70.4445 9.372 70.4405 9.248 70.4405 9.144V8.244H71.0885L71.3525 9.036H72.6245ZM79.772 9.036V9.888H78.512V16.5H77.588C77.348 16.02 77.016 15.58 76.592 15.18C76.176 14.772 75.696 14.428 75.152 14.148C74.608 13.868 74.028 13.68 73.412 13.584L72.944 12.432C73.712 11.968 74.504 11.548 75.32 11.172C76.144 10.796 76.992 10.476 77.864 10.212L77.588 10.716V9.888H72.38V9.036H79.772ZM77.588 10.812L77.84 11.148C77.232 11.348 76.592 11.596 75.92 11.892C75.248 12.18 74.628 12.5 74.06 12.852C74.492 12.948 74.952 13.112 75.44 13.344C75.928 13.576 76.38 13.868 76.796 14.22C77.212 14.572 77.532 14.98 77.756 15.444H77.648C77.632 15.26 77.616 15.076 77.6 14.892C77.592 14.708 77.588 14.488 77.588 14.232V10.812ZM74.72 16.572C74.52 16.572 74.348 16.508 74.204 16.38C74.068 16.252 74 16.084 74 15.876C74 15.668 74.068 15.496 74.204 15.36C74.348 15.224 74.52 15.156 74.72 15.156C74.92 15.156 75.088 15.224 75.224 15.36C75.368 15.496 75.44 15.668 75.44 15.876C75.44 16.084 75.368 16.252 75.224 16.38C75.088 16.508 74.92 16.572 74.72 16.572Z" fill="black"/>
</svg>
