<svg width="88" height="25" viewBox="0 0 88 25" fill="none" xmlns="http://www.w3.org/2000/svg">
<rect y="0.5" width="88" height="24" rx="12" fill="#F5DF4D"/>
<path d="M19.6 8.03725V7.57148C19.6 7.14543 19.2546 6.80005 18.8286 6.80005H13.1714C12.7454 6.80005 12.4 7.14543 12.4 7.57148V8.03725H10.7714C10.3454 8.03725 10 8.38263 10 8.80868V9.80005C10 11.315 11.1334 12.5588 12.5944 12.7592C12.8037 13.3729 13.1748 13.9187 13.6687 14.3388C14.1625 14.7589 14.7607 15.0378 15.4 15.146V15.8C15.4 16.1183 15.2736 16.4235 15.0485 16.6486C14.8235 16.8736 14.5183 17 14.2 17C13.8686 17 13.6 17.2687 13.6 17.6C13.6 17.9314 13.8686 18.2 14.2 18.2H17.8C18.1314 18.2 18.4 17.9314 18.4 17.6C18.4 17.2687 18.1314 17 17.8 17C17.4817 17 17.1765 16.8736 16.9515 16.6486C16.7264 16.4235 16.6 16.1183 16.6 15.8V15.146C17.2393 15.0378 17.8375 14.7589 18.3313 14.3388C18.8252 13.9187 19.1963 13.3729 19.4056 12.7592C20.8666 12.5588 22 11.315 22 9.80005V8.80868C22 8.38263 21.6546 8.03725 21.2286 8.03725H19.6ZM11.2 9.80005V9.23725H12.4V11.4968C12.0493 11.3725 11.7457 11.1426 11.5308 10.8388C11.316 10.535 11.2004 10.1722 11.2 9.80005ZM20.8 9.80005C20.7995 10.1722 20.684 10.5351 20.4691 10.839C20.2543 11.1429 19.9507 11.3729 19.6 11.4974V9.23725H20.8V9.80005Z" fill="black"/>
<path d="M29.444 16.5C28.764 16.5 28.264 16.356 27.944 16.068C27.632 15.772 27.476 15.428 27.476 15.036C27.476 14.724 27.576 14.436 27.776 14.172C27.976 13.908 28.32 13.708 28.808 13.572L29.156 14.496C28.908 14.552 28.728 14.624 28.616 14.712C28.512 14.8 28.46 14.916 28.46 15.06C28.46 15.22 28.54 15.352 28.7 15.456C28.868 15.552 29.112 15.6 29.432 15.6C29.928 15.6 30.312 15.48 30.584 15.24C30.856 15 30.992 14.696 30.992 14.328C30.992 14.088 30.944 13.876 30.848 13.692C30.752 13.5 30.592 13.3 30.368 13.092C30.144 12.884 29.836 12.644 29.444 12.372C28.948 12.02 28.556 11.724 28.268 11.484C27.988 11.244 27.788 11.024 27.668 10.824C27.556 10.616 27.5 10.392 27.5 10.152C27.5 9.968 27.552 9.768 27.656 9.552C27.768 9.328 27.924 9.12 28.124 8.928L28.916 9.348C28.804 9.468 28.712 9.588 28.64 9.708C28.568 9.828 28.532 9.948 28.532 10.068C28.532 10.172 28.548 10.272 28.58 10.368C28.612 10.464 28.68 10.568 28.784 10.68C28.888 10.792 29.04 10.928 29.24 11.088C29.448 11.24 29.72 11.432 30.056 11.664C30.52 11.976 30.888 12.264 31.16 12.528C31.432 12.792 31.624 13.064 31.736 13.344C31.856 13.616 31.916 13.94 31.916 14.316C31.916 14.764 31.808 15.152 31.592 15.48C31.384 15.808 31.092 16.06 30.716 16.236C30.348 16.412 29.924 16.5 29.444 16.5ZM40.6856 9.036V9.888H39.4256V16.5H38.5016V14.88L38.7176 15.516C38.4376 15.092 38.1536 14.7 37.8656 14.34C37.5856 13.98 37.2856 13.688 36.9656 13.464C36.6536 13.24 36.3096 13.128 35.9336 13.128C35.6376 13.128 35.3856 13.204 35.1776 13.356C34.9776 13.508 34.8776 13.736 34.8776 14.04C34.8776 14.304 34.9736 14.528 35.1656 14.712C35.3576 14.888 35.6416 15.04 36.0176 15.168L35.7176 16.092C35.2856 15.94 34.9336 15.756 34.6616 15.54C34.3976 15.324 34.2016 15.088 34.0736 14.832C33.9536 14.568 33.8936 14.292 33.8936 14.004C33.8936 13.62 33.9856 13.3 34.1696 13.044C34.3616 12.788 34.6016 12.596 34.8896 12.468C35.1856 12.332 35.4816 12.264 35.7776 12.264C36.2576 12.264 36.6776 12.352 37.0376 12.528C37.4056 12.704 37.7256 12.94 37.9976 13.236C38.2776 13.532 38.5296 13.864 38.7536 14.232L38.5496 14.268C38.5336 14.084 38.5216 13.9 38.5136 13.716C38.5056 13.524 38.5016 13.328 38.5016 13.128V9.888H32.9816V9.036H40.6856ZM36.6896 12.624C36.6896 12.672 36.6856 12.72 36.6776 12.768C36.6776 12.816 36.6736 12.864 36.6656 12.912L35.7536 12.636C35.7376 12.172 35.6576 11.8 35.5136 11.52C35.3696 11.24 35.1416 11.028 34.8296 10.884C34.5176 10.732 34.0936 10.628 33.5576 10.572L33.7136 9.708L34.2656 9.864C34.6496 9.896 34.9896 9.976 35.2856 10.104C35.5896 10.224 35.8456 10.396 36.0536 10.62C36.2616 10.844 36.4176 11.124 36.5216 11.46C36.6336 11.788 36.6896 12.176 36.6896 12.624ZM52.4776 9.036V9.888H51.2176V16.5H50.2936V11.748L50.5576 12.516C50.2296 12.036 49.9296 11.628 49.6576 11.292C49.3856 10.948 49.1256 10.668 48.8776 10.452C48.6376 10.236 48.3936 10.08 48.1456 9.984C47.8976 9.88 47.6296 9.828 47.3416 9.828C47.0216 9.828 46.7296 9.888 46.4656 10.008C46.2096 10.128 45.9736 10.288 45.7576 10.488C45.5416 10.688 45.3416 10.904 45.1576 11.136L45.0616 11.16C45.1896 11.08 45.3136 11.02 45.4336 10.98C45.5616 10.94 45.7016 10.92 45.8536 10.92C46.3176 10.92 46.6576 11.048 46.8736 11.304C47.0896 11.552 47.1976 11.86 47.1976 12.228C47.1976 12.316 47.1936 12.4 47.1856 12.48C47.1776 12.56 47.1656 12.62 47.1496 12.66L46.9456 12.588C47.0416 12.484 47.1336 12.384 47.2216 12.288C47.3096 12.192 47.4016 12.096 47.4976 12C47.6016 11.904 47.7056 11.804 47.8096 11.7L49.2976 10.308L49.8856 10.944L46.4776 14.16L45.7696 13.5L46.7536 12.564L46.3216 13.08L45.9616 13.356C46.0816 13.22 46.1816 13.076 46.2616 12.924C46.3496 12.764 46.3936 12.584 46.3936 12.384C46.3936 12.184 46.3336 12.024 46.2136 11.904C46.0936 11.784 45.9176 11.724 45.6856 11.724C45.5576 11.724 45.4336 11.74 45.3136 11.772C45.1936 11.804 45.0696 11.86 44.9416 11.94L44.0296 11.076C44.3496 10.652 44.6776 10.284 45.0136 9.972C45.3496 9.652 45.7016 9.404 46.0696 9.228C46.4376 9.044 46.8336 8.952 47.2576 8.952C47.7056 8.952 48.1096 9.036 48.4696 9.204C48.8296 9.372 49.1776 9.624 49.5136 9.96C49.8496 10.288 50.2016 10.704 50.5696 11.208L50.3536 11.148C50.3296 10.956 50.3136 10.748 50.3056 10.524C50.2976 10.3 50.2936 10.06 50.2936 9.804V8.244H50.9296L51.2056 9.036H52.4776ZM48.9235 19.692C48.7075 19.692 48.4715 19.644 48.2155 19.548C47.9595 19.46 47.7435 19.316 47.5675 19.116C47.3835 18.916 47.2915 18.648 47.2915 18.312C47.2915 17.904 47.4475 17.576 47.7595 17.328C48.0715 17.088 48.5075 16.968 49.0675 16.968C49.5635 16.968 50.0435 17.056 50.5075 17.232C50.9635 17.416 51.4315 17.668 51.9115 17.988C52.3835 18.308 52.8875 18.68 53.4235 19.104L52.8835 19.752C52.3475 19.304 51.8595 18.932 51.4195 18.636C50.9795 18.34 50.5635 18.116 50.1715 17.964C49.7795 17.812 49.3915 17.736 49.0075 17.736C48.7195 17.736 48.5035 17.792 48.3595 17.904C48.2155 18.016 48.1435 18.16 48.1435 18.336C48.1435 18.56 48.2235 18.716 48.3835 18.804C48.5355 18.9 48.7155 18.948 48.9235 18.948C49.2195 18.948 49.4595 18.884 49.6435 18.756C49.8195 18.636 49.9555 18.484 50.0515 18.3C50.1475 18.116 50.2115 17.924 50.2435 17.724C50.2755 17.532 50.2915 17.36 50.2915 17.208V16.404H51.2155V17.04C51.2155 17.264 51.1915 17.524 51.1435 17.82C51.0875 18.124 50.9835 18.416 50.8315 18.696C50.6715 18.984 50.4395 19.22 50.1355 19.404C49.8315 19.596 49.4275 19.692 48.9235 19.692ZM59.6275 9.036V9.888H58.3675V16.5H57.4435C57.2035 16.02 56.8715 15.58 56.4475 15.18C56.0315 14.772 55.5515 14.428 55.0075 14.148C54.4635 13.868 53.8835 13.68 53.2675 13.584L52.7995 12.432C53.5675 11.968 54.3595 11.548 55.1755 11.172C55.9995 10.796 56.8475 10.476 57.7195 10.212L57.4435 10.716V9.888H52.2355V9.036H59.6275ZM57.4435 10.812L57.6955 11.148C57.0875 11.348 56.4475 11.596 55.7755 11.892C55.1035 12.18 54.4835 12.5 53.9155 12.852C54.3475 12.948 54.8075 13.112 55.2955 13.344C55.7835 13.576 56.2355 13.868 56.6515 14.22C57.0675 14.572 57.3875 14.98 57.6115 15.444H57.5035C57.4875 15.26 57.4715 15.076 57.4555 14.892C57.4475 14.708 57.4435 14.488 57.4435 14.232V10.812ZM54.5755 16.572C54.3755 16.572 54.2035 16.508 54.0595 16.38C53.9235 16.252 53.8555 16.084 53.8555 15.876C53.8555 15.668 53.9235 15.496 54.0595 15.36C54.2035 15.224 54.3755 15.156 54.5755 15.156C54.7755 15.156 54.9435 15.224 55.0795 15.36C55.2235 15.496 55.2955 15.668 55.2955 15.876C55.2955 16.084 55.2235 16.252 55.0795 16.38C54.9435 16.508 54.7755 16.572 54.5755 16.572ZM65.5039 12.78C64.9439 12.78 64.4759 12.656 64.0999 12.408C63.7319 12.152 63.4479 11.768 63.2479 11.256L63.3919 11.232C63.3359 11.488 63.2439 11.744 63.1159 12C62.9959 12.256 62.8319 12.472 62.6239 12.648C62.4239 12.816 62.1719 12.9 61.8679 12.9C61.6359 12.9 61.4159 12.86 61.2079 12.78C61.0079 12.692 60.8039 12.548 60.5959 12.348C60.3959 12.14 60.1799 11.856 59.9479 11.496L60.6799 11.064C60.9119 11.456 61.0999 11.708 61.2439 11.82C61.3959 11.932 61.5599 11.988 61.7359 11.988C61.9279 11.988 62.0959 11.924 62.2399 11.796C62.3919 11.668 62.5119 11.452 62.5999 11.148C62.6879 10.844 62.7399 10.424 62.7559 9.888H63.5839C63.6479 10.184 63.7319 10.464 63.8359 10.728C63.9399 10.984 64.0679 11.212 64.2199 11.412C64.3799 11.612 64.5639 11.768 64.7719 11.88C64.9879 11.992 65.2359 12.048 65.5159 12.048C65.7959 12.048 66.0079 11.976 66.1519 11.832C66.3039 11.68 66.3799 11.468 66.3799 11.196C66.3799 10.892 66.2959 10.604 66.1279 10.332C65.9679 10.052 65.7719 9.808 65.5399 9.6L66.4999 9.408C66.6279 9.52 66.7519 9.668 66.8719 9.852C66.9999 10.028 67.1039 10.232 67.1839 10.464C67.2639 10.688 67.3039 10.932 67.3039 11.196C67.3039 11.732 67.1439 12.132 66.8239 12.396C66.5039 12.652 66.0639 12.78 65.5039 12.78ZM69.3799 9.036V9.888H59.3839V9.036H69.3799ZM66.0559 12.276V12.684L66.0319 12.624C66.5359 12.696 66.9999 12.824 67.4239 13.008C67.8559 13.192 68.2039 13.44 68.4679 13.752C68.7319 14.056 68.8639 14.428 68.8639 14.868C68.8639 15.252 68.7399 15.58 68.4919 15.852C68.2439 16.124 67.8719 16.26 67.3759 16.26C67.2719 16.26 67.1639 16.256 67.0519 16.248C66.9479 16.232 66.8479 16.216 66.7519 16.2L66.7999 15.36C66.8399 15.368 66.8879 15.376 66.9439 15.384C67.0079 15.384 67.0759 15.384 67.1479 15.384C67.4759 15.384 67.6879 15.324 67.7839 15.204C67.8879 15.084 67.9399 14.944 67.9399 14.784C67.9399 14.472 67.7799 14.196 67.4599 13.956C67.1479 13.708 66.6759 13.532 66.0439 13.428L66.0559 13.344V17.016H65.1319C64.8919 16.664 64.5999 16.364 64.2559 16.116C63.9119 15.86 63.5279 15.656 63.1039 15.504C62.6879 15.344 62.2519 15.24 61.7959 15.192L61.3519 14.112C61.9919 13.792 62.6559 13.496 63.3439 13.224C64.0319 12.952 64.7079 12.752 65.3719 12.624L65.1319 13.068V12.396L66.0559 12.276ZM65.1319 13.08L65.4199 13.428C64.9079 13.556 64.3719 13.732 63.8119 13.956C63.2519 14.172 62.7479 14.384 62.2999 14.592L62.2279 14.436C62.8679 14.532 63.4319 14.716 63.9199 14.988C64.4159 15.26 64.8359 15.564 65.1799 15.9C65.1719 15.764 65.1599 15.608 65.1439 15.432C65.1359 15.256 65.1319 15.112 65.1319 15V13.08ZM72.5776 9.036V9.888H71.3176V16.5H70.3936V10.872C70.2976 10.6 70.1536 10.368 69.9616 10.176C69.7776 9.984 69.5376 9.888 69.2416 9.888H69.1456V9.036H69.3256C69.5176 9.036 69.7176 9.1 69.9256 9.228C70.1336 9.348 70.3016 9.536 70.4296 9.792C70.4216 9.752 70.4136 9.66 70.4056 9.516C70.3976 9.372 70.3936 9.248 70.3936 9.144V8.244H71.0416L71.3056 9.036H72.5776ZM79.7251 9.036V9.888H78.4651V16.5H77.5411C77.3011 16.02 76.9691 15.58 76.5451 15.18C76.1291 14.772 75.6491 14.428 75.1051 14.148C74.5611 13.868 73.9811 13.68 73.3651 13.584L72.8971 12.432C73.6651 11.968 74.4571 11.548 75.2731 11.172C76.0971 10.796 76.9451 10.476 77.8171 10.212L77.5411 10.716V9.888H72.3331V9.036H79.7251ZM77.5411 10.812L77.7931 11.148C77.1851 11.348 76.5451 11.596 75.8731 11.892C75.2011 12.18 74.5811 12.5 74.0131 12.852C74.4451 12.948 74.9051 13.112 75.3931 13.344C75.8811 13.576 76.3331 13.868 76.7491 14.22C77.1651 14.572 77.4851 14.98 77.7091 15.444H77.6011C77.5851 15.26 77.5691 15.076 77.5531 14.892C77.5451 14.708 77.5411 14.488 77.5411 14.232V10.812ZM74.6731 16.572C74.4731 16.572 74.3011 16.508 74.1571 16.38C74.0211 16.252 73.9531 16.084 73.9531 15.876C73.9531 15.668 74.0211 15.496 74.1571 15.36C74.3011 15.224 74.4731 15.156 74.6731 15.156C74.8731 15.156 75.0411 15.224 75.1771 15.36C75.3211 15.496 75.3931 15.668 75.3931 15.876C75.3931 16.084 75.3211 16.252 75.1771 16.38C75.0411 16.508 74.8731 16.572 74.6731 16.572Z" fill="black"/>
</svg>
