<svg width="20" height="20" viewBox="0 0 20 20" fill="none" xmlns="http://www.w3.org/2000/svg">
<path fill-rule="evenodd" clip-rule="evenodd" d="M11.0754 0.646003C10.3717 0.451332 9.62836 0.451332 8.92468 0.646003C8.49446 0.765022 8.10913 0.97446 7.69197 1.2608C7.28581 1.53958 6.8163 1.9152 6.22675 2.38684L6.22673 2.38686L3.66084 4.43957L3.58451 4.50063C2.72123 5.19106 2.18989 5.61602 1.80188 6.15128C1.45862 6.6248 1.20324 7.15616 1.04791 7.72C0.872331 8.35736 0.872421 9.03773 0.872567 10.1432L0.872575 10.2409L0.872575 16.172C0.872566 16.6255 0.872559 17.0041 0.897826 17.3133C0.924179 17.6359 0.981161 17.9387 1.12707 18.2251C1.35092 18.6644 1.70812 19.0216 2.14747 19.2455C2.43383 19.3914 2.73665 19.4483 3.0592 19.4747C3.36845 19.5 3.747 19.5 4.20053 19.4999H5.2695L5.34061 19.5H5.34063C5.72177 19.5002 6.016 19.5004 6.27428 19.4414C7.14869 19.2418 7.8315 18.559 8.03108 17.6846C8.09004 17.4263 8.08987 17.1321 8.08965 16.7509L8.08963 16.6798V13.7687C8.08963 12.7136 8.94494 11.8583 10 11.8583C11.0551 11.8583 11.9104 12.7136 11.9104 13.7687V16.6798L11.9104 16.7509C11.9102 17.1321 11.91 17.4263 11.969 17.6846C12.1685 18.559 12.8514 19.2418 13.7258 19.4414C13.984 19.5004 14.2783 19.5002 14.6594 19.5H14.6594L14.7305 19.4999H15.7995C16.253 19.5 16.6316 19.5 16.9408 19.4747C17.2634 19.4483 17.5662 19.3914 17.8526 19.2455C18.2919 19.0216 18.6491 18.6644 18.873 18.2251C19.0189 17.9387 19.0759 17.6359 19.1022 17.3133C19.1275 17.0041 19.1275 16.6255 19.1275 16.172V10.2409L19.1275 10.1431C19.1276 9.03773 19.1277 8.35736 18.9521 7.72C18.7968 7.15616 18.5414 6.6248 18.1982 6.15128C17.8102 5.61602 17.2788 5.19106 16.4155 4.50063L16.3392 4.43957L13.7733 2.38687L13.7733 2.38685C13.1838 1.9152 12.7142 1.53958 12.3081 1.2608C11.8909 0.974459 11.5056 0.765022 11.0754 0.646003Z" fill="#666666"/>
</svg>
