<svg width="24" height="24" viewBox="0 0 24 24" fill="none" xmlns="http://www.w3.org/2000/svg">
<path fill-rule="evenodd" clip-rule="evenodd" d="M13.0754 2.646C12.3717 2.45133 11.6284 2.45133 10.9247 2.646C10.4945 2.76502 10.1091 2.97446 9.69197 3.2608C9.28581 3.53958 8.8163 3.9152 8.22675 4.38684L8.22673 4.38686L5.66084 6.43957L5.58451 6.50063C4.72123 7.19106 4.18989 7.61602 3.80188 8.15128C3.45862 8.6248 3.20324 9.15616 3.04791 9.72C2.87233 10.3574 2.87242 11.0377 2.87257 12.1432L2.87258 12.2409L2.87258 18.172C2.87257 18.6255 2.87256 19.0041 2.89783 19.3133C2.92418 19.6359 2.98116 19.9387 3.12707 20.2251C3.35092 20.6644 3.70812 21.0216 4.14747 21.2455C4.43383 21.3914 4.73665 21.4483 5.0592 21.4747C5.36845 21.5 5.747 21.5 6.20053 21.4999H7.2695L7.34061 21.5H7.34063C7.72177 21.5002 8.016 21.5004 8.27428 21.4414C9.14869 21.2418 9.8315 20.559 10.0311 19.6846C10.09 19.4263 10.0899 19.1321 10.0897 18.7509L10.0896 18.6798V15.7687C10.0896 14.7136 10.9449 13.8583 12 13.8583C13.0551 13.8583 13.9104 14.7136 13.9104 15.7687V18.6798L13.9104 18.7509C13.9102 19.1321 13.91 19.4263 13.969 19.6846C14.1685 20.559 14.8514 21.2418 15.7258 21.4414C15.984 21.5004 16.2783 21.5002 16.6594 21.5H16.6594L16.7305 21.4999H17.7995C18.253 21.5 18.6316 21.5 18.9408 21.4747C19.2634 21.4483 19.5662 21.3914 19.8526 21.2455C20.2919 21.0216 20.6491 20.6644 20.873 20.2251C21.0189 19.9387 21.0759 19.6359 21.1022 19.3133C21.1275 19.0041 21.1275 18.6255 21.1275 18.172V12.2409L21.1275 12.1431C21.1276 11.0377 21.1277 10.3574 20.9521 9.72C20.7968 9.15616 20.5414 8.6248 20.1982 8.15128C19.8102 7.61602 19.2788 7.19106 18.4155 6.50063L18.3392 6.43957L15.7733 4.38687L15.7733 4.38685C15.1838 3.9152 14.7142 3.53958 14.3081 3.2608C13.8909 2.97446 13.5056 2.76502 13.0754 2.646Z" fill="#EC0613"/>
</svg>
