<svg width="24" height="24" viewBox="0 0 24 24" fill="none" xmlns="http://www.w3.org/2000/svg">
<g opacity="0.9">
<circle cx="12" cy="12" r="9.25" stroke="#EC0613" stroke-width="1.5"/>
<mask id="mask0_2002_1741" style="mask-type:alpha" maskUnits="userSpaceOnUse" x="3" y="3" width="18" height="18">
<circle cx="12" cy="12" r="9" fill="#D9D9D9"/>
</mask>
<g mask="url(#mask0_2002_1741)">
<path d="M7.99505 10.3834C7.99505 8.17153 9.78816 6.37842 12.0001 6.37842C14.212 6.37842 16.0051 8.17153 16.0051 10.3834C16.0051 12.5954 14.212 14.3885 12.0001 14.3885C9.78816 14.3885 7.99505 12.5954 7.99505 10.3834Z" fill="#EC0613"/>
<path d="M9.33595 15.9901C6.75621 15.9901 4.66492 18.0814 4.66492 20.6611C4.66492 22.5052 6.15985 24.0002 8.00393 24.0002H15.996C17.8401 24.0002 19.335 22.5052 19.335 20.6611C19.335 18.0814 17.2438 15.9901 14.664 15.9901H9.33595Z" fill="#EC0613"/>
</g>
</g>
</svg>
