<svg width="24" height="24" viewBox="0 0 24 24" fill="none" xmlns="http://www.w3.org/2000/svg">
<path fill-rule="evenodd" clip-rule="evenodd" d="M14.2976 20.5241C13.5603 20.6994 12.791 20.7922 12 20.7922C6.53457 20.7922 2.10394 16.3615 2.10394 10.8961C2.10394 5.43063 6.53457 1 12 1C17.4655 1 21.8961 5.43063 21.8961 10.8961C21.8961 14.4628 20.0092 17.5888 17.1792 19.3303C17.7779 20.4549 18.6928 20.9393 19.6783 21.1166V22.8732C17.4089 23.2837 15.4148 22.7474 14.2976 20.5241ZM15.6776 16.3812C16.4319 15.4198 16.9049 14.1573 16.98 12.7695C16.9932 12.525 17.0083 12.3164 17.0225 12.1196C17.0509 11.7278 17.0758 11.3832 17.0758 10.8961C17.0758 10.2826 17.0462 9.89444 17.005 9.35434L17.005 9.35431L17.005 9.35428C16.997 9.25028 16.9887 9.14064 16.98 9.02268C16.7704 6.17097 14.7504 3.55382 12 3.55382C9.24966 3.55382 7.18961 6.2192 7.02005 9.02267C7.00576 9.25891 6.98988 9.46167 6.97493 9.65257C6.9436 10.0527 6.91634 10.4008 6.91634 10.8961C6.91634 11.3854 6.94339 11.731 6.97425 12.125L6.97425 12.1251C6.98953 12.3202 7.00573 12.5272 7.02005 12.7695C7.18962 15.6392 9.24966 18.2383 12 18.2383C12.4007 18.2383 12.7868 18.1867 13.1546 18.089C12.9641 17.8116 12.7566 17.5581 12.5113 17.294C12.0983 16.8493 11.4432 16.5211 10.8181 16.5211V14.4913C11.5135 14.4913 12.816 14.5363 13.8885 15.1157C14.5912 15.4953 15.1949 15.8941 15.6776 16.3812Z" fill="url(#paint0_linear_708_8692)"/>
<defs>
<linearGradient id="paint0_linear_708_8692" x1="12" y1="1" x2="12" y2="23" gradientUnits="userSpaceOnUse">
<stop stop-color="#F24F41"/>
<stop offset="1" stop-color="#F58220"/>
</linearGradient>
</defs>
</svg>
