<svg width="24" height="24" viewBox="0 0 24 24" fill="none" xmlns="http://www.w3.org/2000/svg">
<path d="M21 5.99999C21 6.65143 20.4719 7.17954 19.8204 7.17954H4.17955C3.5281 7.17954 3 6.65143 3 5.99999V5.99999C3 5.34854 3.5281 4.82043 4.17955 4.82043H19.8204C20.4719 4.82043 21 5.34854 21 5.99999V5.99999Z" fill="#0D1A2D"/>
<path d="M21 12C21 12.6514 20.4719 13.1795 19.8204 13.1795H4.17955C3.5281 13.1795 3 12.6514 3 12V12C3 11.3485 3.5281 10.8204 4.17955 10.8204H19.8204C20.4719 10.8204 21 11.3485 21 12V12Z" fill="#0D1A2D"/>
<path d="M3 18C3 18.6514 3.5281 19.1795 4.17955 19.1795H19.8204C20.4719 19.1795 21 18.6514 21 18V18C21 17.3485 20.4719 16.8204 19.8205 16.8204H4.17955C3.5281 16.8204 3 17.3485 3 18V18Z" fill="#0D1A2D"/>
</svg>
