<svg width="24" height="24" viewBox="0 0 24 24" fill="none" xmlns="http://www.w3.org/2000/svg">
<path d="M20.9994 16.5857C21.0141 17.484 20.7609 18.452 20.2238 19.2258L20.0342 19.4762C19.6804 19.9943 19.1702 20.3734 18.5645 20.5999C18.1435 20.7573 17.88 20.803 17.2005 20.8809C14.278 21.1542 11.0843 19.7901 7.93079 16.9847C5.8242 15.1067 4.24674 12.7577 3.48718 10.3562C3.16664 9.34072 2.99976 8.36513 2.99976 7.48215C2.99976 6.42339 3.23885 5.50628 3.71973 4.81738C4.17595 4.19079 5.04291 3.6703 6.34629 3.17835C6.98545 2.9371 7.70687 3.15822 8.10108 3.71618L10.5991 7.25233C11.0113 7.83581 10.9547 8.62901 10.4641 9.14819L10.1389 9.48036L9.74555 9.86164C9.64729 9.94474 9.49781 10.1451 9.49781 10.1451C9.46361 10.6052 9.95422 11.5518 11.3827 13.0135L11.8078 13.4122C13.125 14.6271 13.4796 14.7246 13.8843 14.4428L14.0191 14.3326C14.1623 14.2237 14.5371 13.9629 15.3363 13.4134C15.7948 13.0982 16.39 13.0626 16.8827 13.321L17.2464 13.5134C19.7409 14.8451 20.8804 15.6466 20.9906 16.4686L20.9994 16.5857ZM19.4996 16.6097C19.5015 16.733 19.3281 16.5431 18.967 16.2824C18.4404 15.9021 17.6298 15.4185 16.5424 14.838L16.1861 14.6494L15.0041 15.4652C14.9766 15.4831 14.9639 15.4902 14.9689 15.4845C13.6799 16.4969 12.5697 16.2129 10.3293 14.081C8.61007 12.3224 7.92939 11.0092 8.00138 10.0418C8.03499 9.5125 8.39979 9.02775 8.75385 8.73763C8.90445 8.5928 9.05269 8.44716 9.18625 8.31177L9.37393 8.11779L6.87601 4.58171C5.82376 4.97888 5.17305 5.36947 4.94086 5.68824C4.66146 6.08877 4.49976 6.70933 4.49976 7.48215C4.49976 8.20277 4.64099 9.02824 4.91751 9.90429C5.59279 12.0393 7.01765 14.1611 8.92835 15.8645C11.7969 18.4165 14.6074 19.6169 17.0452 19.389L17.4315 19.3408C17.6986 19.3029 17.8493 19.2659 18.0391 19.1949C18.3679 19.072 18.6272 18.8793 18.8383 18.573C19.2391 18.0836 19.4531 17.4572 19.4931 16.8627L19.4996 16.6097Z" fill="black"/>
</svg>
