<svg width="16" height="17" viewBox="0 0 16 17" fill="none" xmlns="http://www.w3.org/2000/svg">
<path d="M3.5 4.5C3.5 5.0628 3.68597 5.58217 3.99982 6H2.5C2.22386 6 2 6.22386 2 6.5V14.5C2 14.7761 2.22386 15 2.5 15H13.5C13.7761 15 14 14.7761 14 14.5V6.5C14 6.22386 13.7761 6 13.5 6H12.0002C12.314 5.58217 12.5 5.0628 12.5 4.5C12.5 3.11929 11.3807 2 10 2C9.1822 2 8.45611 2.39267 8 2.99976C7.54388 2.39267 6.8178 2 6 2C4.61929 2 3.5 3.11929 3.5 4.5ZM11.5 4.5C11.5 5.32843 10.8284 6 10 6H8.5V4.5C8.5 3.67157 9.17157 3 10 3C10.8284 3 11.5 3.67157 11.5 4.5ZM7.5 7V11.5H8.5V7H13V14H3V7H7.5ZM7.5 6H6C5.17157 6 4.5 5.32843 4.5 4.5C4.5 3.67157 5.17157 3 6 3C6.82843 3 7.5 3.67157 7.5 4.5V6Z" fill="#EC0613"/>
</svg>
