<svg width="12" height="13" viewBox="0 0 12 13" fill="none" xmlns="http://www.w3.org/2000/svg">
<path fill-rule="evenodd" clip-rule="evenodd" d="M7.1724 10.9302C6.79503 11.0205 6.40115 11.0684 5.99609 11.0684C3.21578 11.0684 0.961899 8.8145 0.961899 6.03419C0.961899 3.25388 3.21578 1 5.99609 1C8.7764 1 11.0303 3.25388 11.0303 6.03419C11.0303 7.38512 10.4982 8.61176 9.63209 9.51595C10.0637 9.74789 10.4556 10.0528 10.7906 10.419C11.1425 10.8037 11.1159 11.4007 10.7312 11.7526C10.3466 12.1044 9.74951 12.0778 9.39766 11.6932C9.0757 11.3412 8.66663 11.0928 8.21954 10.9728C7.87567 10.8805 7.51855 10.8667 7.1724 10.9302ZM8.67612 4.37669C8.9833 4.68387 8.9833 5.18192 8.67612 5.4891L6.31634 7.84888C6.00916 8.15606 5.51112 8.15606 5.20393 7.84888L3.86672 6.51167C3.55954 6.20449 3.55954 5.70644 3.86672 5.39926C4.17391 5.09208 4.67195 5.09208 4.97914 5.39926L5.76014 6.18026L7.56371 4.37669C7.87089 4.06951 8.36894 4.06951 8.67612 4.37669Z" fill="#030C4A"/>
</svg>
