<svg width="16" height="15" viewBox="0 0 16 15" fill="none" xmlns="http://www.w3.org/2000/svg">
<g clip-path="url(#clip0_2002_1529)">
<path d="M12.0851 0.166626H4.08257C2.24231 0.166626 0.750488 1.65845 0.750488 3.49871V11.5012C0.750488 13.3415 2.24231 14.8333 4.08257 14.8333H12.0851C13.9253 14.8333 15.4172 13.3415 15.4172 11.5012V3.49871C15.4172 1.65845 13.9253 0.166626 12.0851 0.166626Z" fill="url(#paint0_linear_2002_1529)"/>
<path d="M8.10214 10.2682C6.79131 10.2682 5.72339 9.20033 5.72339 7.88949C5.72339 6.57866 6.79131 5.51074 8.10214 5.51074C9.41297 5.51074 10.4809 6.57866 10.4809 7.88949C10.4809 9.20033 9.41297 10.2682 8.10214 10.2682ZM8.10214 5.70783C6.90131 5.70783 5.92047 6.68408 5.92047 7.88949C5.92047 9.09491 6.89672 10.0712 8.10214 10.0712C9.30756 10.0712 10.2838 9.09491 10.2838 7.88949C10.2838 6.68408 9.30756 5.70783 8.10214 5.70783V5.70783Z" fill="white"/>
<path d="M7.80885 5.80408L8.22593 6.10199C8.22593 6.10199 7.76302 6.50533 7.5201 6.74824C7.19927 6.67033 7.00218 6.62908 6.71802 6.62908C6.75927 6.42741 6.87843 6.18908 7.0801 6.06991C7.0801 6.06991 7.30468 5.88658 7.80885 5.80866V5.80408Z" fill="white"/>
<path d="M9.2938 6.54657C8.80339 6.24407 8.13881 6.14324 8.12964 6.14324L8.14339 6.05615C8.17089 6.05615 8.83089 6.16157 9.33964 6.47324L9.2938 6.55115V6.54657Z" fill="white"/>
<path d="M9.58705 6.30824L9.1333 6.43199C9.1333 6.43199 9.60538 6.87657 9.60997 7.34866C9.7658 7.35782 10.2975 7.49991 10.2883 8.32032C10.3891 7.55491 10.2883 7.31657 10.1371 6.94532C9.9858 6.57407 9.68788 6.29907 9.68788 6.29907L9.58247 6.31282L9.58705 6.30824Z" fill="white"/>
<path d="M7.9371 7.74738C7.9371 7.74738 8.61543 8.11863 9.06002 8.07738C9.03252 8.47155 8.99127 8.86571 9.12877 9.19571C8.75752 9.2553 8.38168 9.35155 7.9921 9.52113C7.84543 9.24613 7.54293 8.82446 7.2771 8.68238C7.50168 8.46238 7.8546 7.8803 7.93252 7.7428L7.9371 7.74738Z" fill="white"/>
<path d="M6.20003 7.45862C6.20003 7.45862 6.27794 8.1232 6.52544 8.40278C6.40628 8.57695 6.32836 8.9757 6.47044 9.32862C6.22753 9.13153 5.87003 8.6182 5.84253 8.18278C5.81503 7.74737 5.90211 7.45862 5.90211 7.45862L5.95711 7.48153C5.95711 7.48153 6.07628 7.63278 6.19544 7.45862H6.20003Z" fill="white"/>
<path d="M7.41925 8.73736C6.883 8.60903 6.43842 8.43486 6.43384 8.43028L6.46592 8.34778C6.46592 8.34778 6.90592 8.52194 7.43759 8.65028L7.41467 8.73736H7.41925Z" fill="white"/>
<path d="M7.54255 6.6634L7.45776 6.69824L7.96298 7.92765L8.04777 7.89281L7.54255 6.6634Z" fill="white"/>
<path d="M9.65989 7.25622L8.84619 8.27808L8.9179 8.33518L9.7316 7.31332L9.65989 7.25622Z" fill="white"/>
<path d="M7.62558 10.0757L7.55225 10.0253C7.76766 9.70448 7.96933 9.40198 7.96933 9.40198L8.04266 9.45239C8.04266 9.45239 7.841 9.75489 7.62558 10.0757Z" fill="white"/>
<path d="M9.68808 9.43412C9.44974 9.33788 9.03266 9.18663 9.02808 9.18663L9.06016 9.10413C9.06016 9.10413 9.48641 9.25538 9.72474 9.35163L9.69266 9.43412H9.68808Z" fill="white"/>
<path d="M6.20921 7.61449L6.12671 7.58241C6.35588 6.97283 6.77754 6.56033 6.79588 6.54199L6.86004 6.60616C6.86004 6.60616 6.43838 7.02324 6.21379 7.61449H6.20921Z" fill="white"/>
<path d="M7.82606 5.65585L7.73486 5.66516L7.7628 5.93874L7.85399 5.92943L7.82606 5.65585Z" fill="white"/>
<path d="M6.67582 6.15079L6.63159 6.23108L6.90859 6.38368L6.95282 6.30339L6.67582 6.15079Z" fill="white"/>
<path d="M9.53223 5.73993C9.53223 5.73993 13.5656 7.99952 13.9231 12.3904C13.5701 11.7258 12.9926 10.5295 10.0226 9.72743C10.6414 9.77327 12.3281 10.1262 13.4831 11.4554C13.4372 11.0566 12.9972 9.6816 10.7331 8.17368C10.7331 8.17368 11.7964 8.65952 12.4197 9.28285C12.2868 8.92993 11.5764 8.04077 10.5589 7.37618C11.1776 7.68785 11.5351 7.86202 11.9339 8.21952C11.3564 7.42202 10.3389 6.4916 9.54139 5.73535L9.53223 5.73993Z" fill="white"/>
<path d="M10.6414 9.24622C10.6414 9.24622 12.1493 9.37913 13.0797 10.8412C12.8139 10.6625 12.4609 10.1308 10.6414 9.24622Z" fill="white"/>
<path d="M9.70178 5.37788L7.92803 1.78455L6.15428 5.37788L2.1897 5.95538L5.05886 8.75121L4.38053 12.702L7.92803 10.8366L11.4755 12.702L11.1089 10.557C10.9851 10.5112 10.8522 10.4654 10.7147 10.4195L10.9943 12.0375L8.57886 10.7679L7.93261 10.4287L7.44678 10.6854L4.87095 12.042L5.45761 8.63205L2.98261 6.21663L6.40636 5.71705L7.9372 2.61413L9.40845 5.58871L9.47261 5.71246L9.69261 5.74455H9.70178L10.238 5.82246L12.8964 6.20746L11.8743 7.20205C11.9109 7.23871 11.943 7.27538 11.9797 7.31205C12.0301 7.36246 12.0759 7.41746 12.1264 7.46788L13.6801 5.9508L9.71553 5.3733L9.70178 5.37788Z" fill="white"/>
</g>
<defs>
<linearGradient id="paint0_linear_2002_1529" x1="15.6967" y1="15.1129" x2="3.10174" y2="2.51788" gradientUnits="userSpaceOnUse">
<stop stop-color="#ED2F2B"/>
<stop offset="1" stop-color="#FB6C3C"/>
</linearGradient>
<clipPath id="clip0_2002_1529">
<rect width="14.6667" height="14.6667" fill="white" transform="translate(0.750488 0.166626)"/>
</clipPath>
</defs>
</svg>
