<svg width="14" height="13" viewBox="0 0 14 13" fill="none" xmlns="http://www.w3.org/2000/svg">
<path d="M11.2861 2.21441V0.5H2.71407V2.21441H0.142456V3.92882C0.142432 4.3326 0.23749 4.73072 0.419935 5.09093C0.602381 5.45114 0.867086 5.76334 1.19262 6.00223C1.51815 6.24112 1.89537 6.4 2.29372 6.466C2.69207 6.532 3.10037 6.50327 3.48555 6.38213C4.11468 7.28337 5.06599 7.90847 6.14289 8.12826V10.7856H5.28568C4.83099 10.7856 4.39493 10.9662 4.07341 11.2877C3.7519 11.6092 3.57127 12.0453 3.57127 12.5H10.4289C10.4289 12.0453 10.2483 11.6092 9.92677 11.2877C9.60525 10.9662 9.16919 10.7856 8.7145 10.7856H7.85729V8.12826C8.93409 7.90822 9.88531 7.28317 10.5146 6.38213C10.8998 6.50327 11.3081 6.532 11.7065 6.466C12.1048 6.4 12.482 6.24112 12.8076 6.00223C13.1331 5.76334 13.3978 5.45114 13.5802 5.09093C13.7627 4.73072 13.8577 4.3326 13.8577 3.92882V2.21441H11.2861ZM2.71407 5.48293C2.30203 5.48247 1.907 5.31859 1.61565 5.02724C1.32429 4.73588 1.16041 4.34085 1.15996 3.92882V3.07161H2.71407V3.92882C2.71407 4.46714 2.8135 4.98232 2.99437 5.45635C2.90351 5.47264 2.80922 5.48207 2.71407 5.48207V5.48293ZM12.8402 3.92882C12.8399 4.15653 12.7896 4.3814 12.6928 4.58754C12.5961 4.79369 12.4553 4.97608 12.2803 5.12184C12.1054 5.26761 11.9005 5.37319 11.6803 5.43114C11.4601 5.48909 11.2298 5.49799 11.0058 5.45721C11.1916 4.96938 11.2866 4.45168 11.2861 3.92967V3.07247H12.8402V3.92967V3.92882Z" fill="#666666"/>
</svg>
